<?xml version="1.0" encoding="UTF-8"?>
<svg id="Layer_2" data-name="Layer 2" xmlns="http://www.w3.org/2000/svg" viewBox="0 0 48 48">
  <defs>
    <style>
      .cls-1 {
        fill: #00131e;
      }

      .cls-1, .cls-2 {
        stroke-width: 0px;
      }

      .cls-2 {
        fill: #7adb78;
      }
    </style>
  </defs>
  <g id="Layer_1-2" data-name="Layer 1">
    <rect class="cls-2" width="48" height="48" rx="12" ry="12"/>
    <g>
      <path class="cls-1" d="M26.22,33.56c-.1.02-.2.03-.3.04-.21.03-.37.22-.34.43,0,0,0,0,0,0,0,.05.02.1.04.14.02-.03.04-.07.07-.09l.53-.53Z"/>
      <path class="cls-1" d="M32.44,20.85c.18.33.34.68.48,1.03.06.16.21.25.37.25.05,0,.09,0,.13-.02,0,0,0,0,0,0,.2-.08.31-.31.23-.51-.15-.38-.32-.76-.52-1.13-.11-.19-.35-.26-.54-.16,0,0,0,0,0,0-.19.11-.25.35-.15.53Z"/>
      <path class="cls-1" d="M17.29,29.26c-.19-.33-.35-.67-.49-1.02-.08-.2-.31-.3-.51-.22,0,0,0,0,0,0-.2.08-.3.31-.22.51.15.38.33.76.54,1.12.07.13.21.2.35.2.07,0,.13-.02.19-.05,0,0,0,0,0,0,.19-.11.25-.35.14-.54Z"/>
      <path class="cls-1" d="M18.66,31.07c-.27-.27-.51-.56-.74-.86-.13-.17-.37-.21-.55-.08,0,0,0,0,0,0-.18.13-.21.38-.08.56.25.33.52.65.81.94.08.08.18.12.28.12s.2-.04.28-.11c0,0,0,0,0,0,.15-.15.15-.4,0-.55Z"/>
      <path class="cls-1" d="M22.54,33.36c-.36-.1-.73-.23-1.07-.37-.2-.09-.43,0-.52.2,0,0,0,0,0,0-.09.2,0,.43.21.52.38.16.78.3,1.17.41.04,0,.07.01.1.01.17,0,.33-.12.38-.29,0,0,0,0,0,0,.05-.21-.07-.42-.28-.48Z"/>
      <path class="cls-1" d="M16.45,27.16c-.03-.13-.06-.26-.09-.39-.06-.02-.11-.05-.15-.09l-.73-.73c-.02.06-.03.12-.03.19.05.41.12.82.23,1.22.04.18.21.3.38.3.03,0,.07,0,.1-.01,0,0,0,0,0,0,.21-.06.33-.27.28-.48Z"/>
      <path class="cls-1" d="M24.79,33.67c-.38,0-.76-.03-1.14-.08-.21-.03-.41.12-.44.33,0,0,0,0,0,0-.03.22.12.42.34.45.41.06.82.09,1.24.09h0c.22,0,.4-.18.4-.39,0,0,0,0,0,0,0-.22-.18-.39-.39-.39Z"/>
      <path class="cls-1" d="M33.26,22.97c.09.37.15.74.19,1.12.02.2.19.36.39.36.01,0,.02,0,.03,0h0c.22-.02.38-.22.35-.44-.04-.41-.11-.82-.21-1.22-.05-.21-.27-.35-.48-.29,0,0,0,0,0,0-.21.06-.33.27-.28.48Z"/>
      <path class="cls-1" d="M33.25,27.15l.63.63c.03-.11.06-.21.09-.32.06-.21-.07-.43-.28-.49,0,0,0,0,0,0-.17-.04-.34.03-.43.18Z"/>
      <path class="cls-1" d="M33.5,25.01c0,.38-.02.76-.07,1.13-.03.22.12.41.33.44,0,0,0,0,.01,0,.02,0,.03,0,.05,0,.2,0,.37-.15.39-.35.05-.41.08-.82.08-1.24,0-.22-.18-.4-.4-.4,0,0,0,0,0,0-.21,0-.39.18-.39.4Z"/>
      <path class="cls-1" d="M29.33,17.6c.32.2.64.42.93.65.07.06.16.09.25.09.11,0,.22-.05.3-.14,0,0,0,0,0,0,.14-.17.11-.42-.06-.56-.32-.26-.66-.5-1.02-.71-.19-.11-.43-.05-.55.13,0,0,0,0,0,0-.11.19-.05.43.14.54Z"/>
      <path class="cls-1" d="M31.1,19.02c.26.27.51.57.73.87.08.11.2.16.32.16.08,0,.16-.02.23-.07,0,0,0,0,0,0,.18-.13.22-.38.09-.56-.24-.33-.51-.65-.8-.95-.15-.16-.4-.16-.56-.01,0,0,0,0,0,0-.15.15-.16.4,0,.56Z"/>
      <path class="cls-1" d="M20.45,32.47c-.33-.19-.64-.41-.94-.64-.17-.13-.41-.1-.55.06,0,0,0,0,0,0-.13.17-.1.42.07.56.33.25.67.49,1.03.7.06.04.13.05.2.05.14,0,.27-.07.34-.2,0,0,0,0,0,0,.1-.19.04-.43-.14-.53Z"/>
      <path class="cls-1" d="M26.99,16.45c.04.11.13.2.26.24.36.1.72.24,1.07.39.05.02.11.03.16.03.15,0,.29-.09.36-.23,0,0,0,0,0,0,.09-.2,0-.43-.2-.52-.37-.16-.75-.3-1.13-.41l-.51.51Z"/>
      <path class="cls-1" d="M12.77,21.28h2.79l-2.09,2.09c-.07.07-.12.18-.12.28s.04.21.12.28l2.01,2.01.73.73s.09.07.15.09c.04.01.09.02.13.02.11,0,.21-.04.28-.12l1.76-1.76v2.46c0,.22.18.4.4.4h3.71c.22,0,.4-.18.4-.4v-2.79l1.93,1.93c.15.15.41.15.56,0l2.41-2.41c.07-.07.12-.17.12-.28s-.04-.21-.12-.28l-2.26-2.26h3.12c.22,0,.4-.18.4-.4v-3.05c0-.22-.18-.4-.4-.4h-2.79l.98-.98.51-.51.6-.6c.16-.15.16-.41,0-.56l-2.74-2.74c-.07-.07-.18-.12-.28-.12s-.21.04-.28.12l-1.76,1.76v-2.46c0-.22-.18-.4-.4-.4h-3.71c-.22,0-.4.18-.4.4v2.79l-1.93-1.93c-.08-.07-.18-.12-.28-.12s-.21.04-.28.12l-2.41,2.41c-.15.15-.15.41,0,.56l2.26,2.26h-3.12c-.22,0-.4.18-.4.4v3.05c0,.22.18.4.4.4ZM13.17,18.23h3.68c.16,0,.3-.1.37-.25.06-.15.03-.32-.09-.43l-2.65-2.65,1.85-1.85,2.32,2.32c.11.11.28.15.43.09.15-.06.25-.21.25-.37v-3.35h2.92v3.02c0,.16.1.3.24.37.15.06.32.03.43-.09l2.16-2.16,2.18,2.18-2.49,2.49c-.11.11-.15.29-.09.43.06.15.21.25.37.25h3.35v2.26h-3.68c-.16,0-.31.1-.37.25-.06.15-.03.32.09.43l2.65,2.66-1.85,1.85-2.32-2.32c-.11-.11-.28-.15-.43-.09-.15.06-.24.21-.24.37v3.35h-2.92v-3.02c0-.16-.1-.3-.25-.37-.15-.06-.32-.03-.43.09l-2.16,2.16-2.18-2.18,2.49-2.49c.11-.11.15-.28.09-.43-.06-.15-.21-.25-.37-.25h-3.35v-2.26Z"/>
      <path class="cls-1" d="M17.81,19.35c0,1.64,1.33,2.97,2.97,2.97s2.97-1.33,2.97-2.97-1.33-2.97-2.97-2.97-2.97,1.33-2.97,2.97ZM20.79,17.18c1.2,0,2.18.98,2.18,2.18s-.98,2.18-2.18,2.18-2.18-.98-2.18-2.18.98-2.18,2.18-2.18Z"/>
      <path class="cls-1" d="M33.25,27.15l-.03-.03c-.15-.16-.41-.16-.56,0l-.82.82v-1.14c0-.22-.18-.4-.4-.4h-2.28c-.22,0-.4.18-.4.4v1.35l-.92-.92c-.08-.07-.18-.12-.28-.12s-.21.04-.28.12l-1.48,1.48c-.15.15-.15.41,0,.56l1.13,1.13h-1.55c-.22,0-.4.18-.4.4v1.88c0,.22.18.4.4.4h1.35l-.49.5-.53.53s-.05.06-.07.09c-.08.15-.06.34.07.47l1.68,1.69c.07.07.18.12.28.12s.21-.04.28-.12l.82-.82v1.14c0,.22.18.4.4.4h2.28c.22,0,.4-.18.4-.4v-1.35l.93.92c.16.15.41.15.56,0l1.48-1.48c.07-.07.12-.18.12-.28s-.04-.21-.12-.28l-1.13-1.13h1.55c.22,0,.4-.18.4-.4v-1.88c0-.22-.18-.4-.4-.4h-1.35l1.03-1.03c.15-.15.15-.41,0-.56l-1.03-1.03-.63-.63ZM32.64,30.51c-.11.11-.15.28-.09.43.06.15.21.25.37.25h1.91v1.08h-2.11c-.16,0-.31.1-.37.25-.06.15-.03.32.09.43l1.52,1.52-.92.92-1.32-1.32c-.11-.11-.28-.15-.43-.09-.15.06-.25.21-.25.37v1.91h-1.49v-1.71c0-.16-.1-.31-.24-.37-.15-.06-.32-.03-.43.09l-1.22,1.22-1.12-1.12,1.42-1.42c.11-.11.15-.28.09-.43-.06-.15-.21-.25-.37-.25h-1.91v-1.08h2.11c.16,0,.3-.1.37-.25.06-.15.03-.32-.09-.43l-1.52-1.52.92-.92,1.32,1.32c.11.11.28.15.43.09.15-.06.24-.21.24-.37v-1.91h1.49v1.71c0,.16.1.31.25.37.15.06.32.03.43-.09l1.22-1.22,1.12,1.12-1.42,1.42Z"/>
      <path class="cls-1" d="M30.3,29.75c-1.09,0-1.98.89-1.98,1.98s.89,1.98,1.98,1.98,1.98-.89,1.98-1.98-.89-1.98-1.98-1.98ZM30.3,32.92c-.65,0-1.19-.53-1.19-1.19s.53-1.19,1.19-1.19,1.19.53,1.19,1.19-.53,1.19-1.19,1.19Z"/>
    </g>
  </g>
</svg>