<?xml version="1.0" encoding="UTF-8"?>
<svg id="Layer_2" data-name="Layer 2" xmlns="http://www.w3.org/2000/svg" viewBox="0 0 48 48">
  <defs>
    <style>
      .cls-1 {
        fill: #00131e;
      }

      .cls-1, .cls-2, .cls-3 {
        stroke-width: 0px;
      }

      .cls-2 {
        fill: none;
      }

      .cls-3 {
        fill: #ff776f;
      }
    </style>
  </defs>
  <g id="Layer_1-2" data-name="Layer 1">
    <rect class="cls-3" width="48" height="48" rx="12" ry="12"/>
    <g>
      <path class="cls-2" d="M14.67,38.97v3.95l.72-1.03c.11-.16.29-.25.49-.25s.37.09.48.25l.72,1.03v-3.95h-2.41Z"/>
      <path class="cls-2" d="M17.67,37.79h18.98V7.68h-20.59v30.11h1.61ZM16.82,28.15h2.2v-6.73c0-.11.03-.21.08-.29-.03,0-.07.01-.1.01h-.89c-.25,0-.47-.15-.55-.38-.09-.23-.02-.49.16-.65l.67-.58c.25-.22.62-.19.83.05l.43-.38h0c-.22-.25-.19-.62.05-.83l1.32-1.16c.25-.21.62-.19.83.06h0l.43-.38h0c-.21-.25-.19-.62.06-.83l1.32-1.16c.24-.22.62-.19.83.06l.43-.38h0c-.22-.25-.19-.62.05-.83l.67-.58c.22-.2.56-.2.78,0l.67.58c.25.22.27.59.06.83l.44.38h0c.21-.25.59-.27.83-.06l1.33,1.16c.25.22.27.59.06.83l.44.38h0c.21-.25.59-.27.83-.06l1.33,1.16c.25.21.27.59.06.83l.44.38c.21-.25.59-.27.83-.06l.67.58c.19.16.25.42.17.65-.09.23-.31.38-.55.38h-.89s-.07,0-.1-.01c.05.09.08.19.08.29v6.73h2c.33,0,.59.26.59.59s-.26.59-.59.59h-18.29c-.33,0-.59-.27-.59-.59s.26-.59.59-.59Z"/>
      <path class="cls-2" d="M32.52,20.83s.07,0,.1,0c-.05-.09-.08-.19-.08-.29h-.39c0,.33-.27.59-.59.59h-1.57c-.33,0-.59-.26-.59-.59h-.39c0,.33-.26.59-.59.59h-1.57c-.33,0-.59-.26-.59-.59h-.39c0,.33-.27.59-.59.59h-1.57c-.33,0-.59-.26-.59-.59h-.39c0,.33-.26.59-.59.59h-1.57c-.33,0-.59-.26-.59-.59h-.39c0,.11-.03.21-.08.29.03,0,.07,0,.1,0,.33,0,.59.26.59.59h11.72c0-.33.26-.59.59-.59Z"/>
      <path class="cls-1" d="M37.24,6.5H15.47c.33,0,.59.27.59.59v.59h20.59v30.11h-18.98c.33,0,.59.26.59.59v.59h18.98c.33,0,.59-.26.59-.59V7.09c0-.33-.26-.59-.59-.59Z"/>
      <path class="cls-1" d="M16.06,38.38c0,.33-.26.59-.59.59h1.61v-.59c0-.33.26-.59.59-.59h-1.61v.59Z"/>
      <path class="cls-1" d="M14.08,37.79h-3.36V7.68h4.16v30.11h-.8c.33,0,.59.26.59.59v.59h.8c.33,0,.59-.26.59-.59V7.09c0-.33-.26-.59-.59-.59h-5.34c-.33,0-.59.27-.59.59v31.29c0,.33.27.59.59.59h3.36v-.59c0-.33.26-.59.59-.59Z"/>
      <path class="cls-1" d="M17.67,37.79c-.33,0-.59.26-.59.59v4.54l-.72-1.03c-.11-.16-.29-.25-.48-.25s-.37.09-.49.25l-.72,1.03v-4.54c0-.33-.27-.59-.59-.59s-.59.26-.59.59v6.41c0,.26.17.49.41.56.25.08.51-.01.66-.23l1.31-1.87,1.31,1.87c.11.16.3.25.48.25.06,0,.12,0,.18-.03.25-.08.41-.31.41-.56v-6.41c0-.33-.26-.59-.59-.59Z"/>
      <path class="cls-1" d="M32.62,20.84s-.07,0-.1,0c-.33,0-.59.26-.59.59v6.73h1.18v-6.73c0-.11-.03-.21-.08-.29-.18-.03-.32-.14-.41-.29Z"/>
      <path class="cls-1" d="M20.21,28.15v-6.73c0-.33-.26-.59-.59-.59-.03,0-.07,0-.1,0-.09.15-.23.26-.41.29-.05.09-.08.19-.08.29v6.73h1.18Z"/>
      <path class="cls-1" d="M25.76,14.63l.28-.25.28.24c.25.22.62.19.83-.06h0c.21-.25.19-.62-.06-.83l-.67-.58c-.22-.2-.55-.19-.78,0l-.67.58c-.25.21-.27.59-.05.83h0c.12.13.28.2.45.2.14,0,.28-.05.39-.15Z"/>
      <path class="cls-1" d="M27.65,15.78l1.33,1.16c.11.1.25.15.39.15.17,0,.33-.07.45-.2h0c.21-.25.19-.62-.06-.83l-1.33-1.16c-.25-.22-.62-.19-.83.06h0c-.21.25-.19.62.06.83Z"/>
      <path class="cls-1" d="M30.3,18.1l1.33,1.16c.11.1.25.15.39.15.16,0,.33-.07.45-.2h0c.21-.25.19-.62-.06-.83l-1.33-1.16c-.25-.21-.62-.19-.83.06h0c-.22.25-.19.62.06.83Z"/>
      <path class="cls-1" d="M32.77,20.08c-.14.11-.23.28-.23.47,0,.11.03.21.08.29.09.15.23.26.41.29.03,0,.07.01.1.01h.89c.25,0,.47-.15.55-.38.09-.23.02-.49-.17-.65l-.67-.58c-.25-.21-.62-.19-.83.06h0c-.12.14-.17.33-.13.5Z"/>
      <path class="cls-1" d="M29.99,21.14h1.57c.33,0,.59-.26.59-.59s-.27-.59-.59-.59h-1.57c-.33,0-.59.26-.59.59s.26.59.59.59Z"/>
      <path class="cls-1" d="M26.85,21.14h1.57c.33,0,.59-.26.59-.59s-.26-.59-.59-.59h-1.57c-.33,0-.59.26-.59.59s.27.59.59.59Z"/>
      <path class="cls-1" d="M20.57,21.14h1.57c.33,0,.59-.26.59-.59s-.26-.59-.59-.59h-1.57c-.33,0-.59.26-.59.59s.27.59.59.59Z"/>
      <path class="cls-1" d="M23.71,21.14h1.57c.33,0,.59-.26.59-.59s-.27-.59-.59-.59h-1.57c-.33,0-.59.26-.59.59s.26.59.59.59Z"/>
      <path class="cls-1" d="M19.51,20.84c.05-.09.08-.19.08-.29,0-.19-.09-.36-.23-.47.03-.17,0-.36-.14-.51h0c-.22-.25-.59-.27-.83-.05l-.67.58c-.18.16-.25.42-.16.65.09.23.31.38.55.38h.89s.07,0,.1-.01c.18-.03.32-.14.41-.29Z"/>
      <path class="cls-1" d="M20.49,19.25l1.32-1.15c.24-.22.27-.59.05-.83h0c-.22-.25-.59-.27-.83-.06l-1.32,1.16c-.25.21-.27.59-.05.83h0c.12.13.28.2.45.2.14,0,.28-.05.39-.15Z"/>
      <path class="cls-1" d="M23.13,16.94l1.32-1.16c.25-.22.27-.59.05-.83h0c-.22-.25-.59-.27-.83-.06l-1.32,1.16c-.25.21-.27.59-.06.83h0c.12.13.28.2.44.2.14,0,.28-.05.39-.15Z"/>
      <path class="cls-1" d="M16.82,29.33h7.86c-.33,0-.59-.27-.59-.59v-.59h-7.27c-.33,0-.59.26-.59.59s.26.59.59.59Z"/>
      <path class="cls-1" d="M31.92,28.15h-4.34v.3c0,.33-.27.59-.59.59s-.59-.27-.59-.59v-.3h-1.13v.59c0,.33-.26.59-.59.59h10.43c.33,0,.59-.27.59-.59s-.26-.59-.59-.59h-3.18Z"/>
      <path class="cls-1" d="M23.67,23.12h-1.59c-.33,0-.59.27-.59.59s.27.59.59.59h1.59c.33,0,.59-.26.59-.59s-.27-.59-.59-.59Z"/>
      <path class="cls-1" d="M28.47,24.3h1.59c.33,0,.59-.26.59-.59s-.26-.59-.59-.59h-1.59c-.33,0-.59.27-.59.59s.26.59.59.59Z"/>
      <path class="cls-1" d="M25.27,28.74v-2.21h1.13v1.92c0,.33.27.59.59.59s.59-.27.59-.59v-2.51c0-.33-.27-.59-.59-.59h-2.32c-.33,0-.59.27-.59.59v2.8c0,.33.26.59.59.59s.59-.27.59-.59Z"/>
    </g>
  </g>
</svg>