<?xml version="1.0" encoding="UTF-8"?>
<svg id="Layer_2" data-name="Layer 2" xmlns="http://www.w3.org/2000/svg" viewBox="0 0 48 48">
  <defs>
    <style>
      .cls-1 {
        fill: #00131e;
      }

      .cls-1, .cls-2 {
        stroke-width: 0px;
      }

      .cls-2 {
        fill: #b0bec5;
      }
    </style>
  </defs>
  <g id="Layer_2-2" data-name="Layer 2">
    <g id="Layer_1-2" data-name="Layer 1-2">
      <rect class="cls-2" width="48" height="48" rx="12" ry="12"/>
    </g>
    <g>
      <path class="cls-1" d="M22.58,41.75v-.83s0-.08.01-.12l-9.62-5.56V13.39s-.08-.03-.11-.05l-.72-.42c-.2-.11-.3-.33-.27-.54,0,.02,0,.04,0,.06v23.11c0,.2.11.38.28.48l10.72,6.19s.03.02.05.03c-.2-.09-.33-.28-.33-.51Z"/>
      <path class="cls-1" d="M34.39,12.28s.02.06.02.09c0-.03-.01-.06-.02-.09Z"/>
      <path class="cls-1" d="M11.99,12.09s-.08.11-.1.17c.01-.03.02-.06.04-.09.02-.03.04-.06.06-.08Z"/>
      <path class="cls-1" d="M12.01,12.07s.04-.04.07-.06c-.03.02-.05.04-.07.06Z"/>
      <path class="cls-1" d="M34.14,12.93l-.72.42s-.08.04-.11.05v21.84l-9.62,5.56s.01.08.01.12v.83c0,.23-.13.42-.33.51.02,0,.04-.02.05-.03l10.72-6.19c.17-.1.28-.28.28-.48V12.44s0-.04,0-.06c.02.21-.08.43-.27.54Z"/>
      <path class="cls-1" d="M11.87,12.37s.01-.06.02-.09c0,.03-.02.06-.02.09Z"/>
      <path class="cls-1" d="M12.7,11.96l.72.42s.07.05.1.07l9.62-5.56,9.62,5.56s.06-.05.1-.07l.72-.42c.2-.11.43-.09.6.03-.01-.01-.03-.02-.04-.03l-10.72-6.19c-.17-.1-.38-.1-.56,0l-10.72,6.19s-.03.02-.05.03c.17-.12.41-.14.6-.03Z"/>
      <path class="cls-1" d="M34.2,12s.05.04.07.06c-.02-.02-.04-.04-.07-.06Z"/>
      <path class="cls-1" d="M34.38,12.26c-.02-.06-.06-.12-.1-.17.02.02.04.05.06.08.02.03.03.06.04.09Z"/>
      <path class="cls-1" d="M23.02,42.29s-.06-.02-.09-.03c.03.01.06.02.09.03Z"/>
      <path class="cls-1" d="M23.14,42.3s-.07,0-.1-.01c.03,0,.07.01.1.01Z"/>
      <path class="cls-1" d="M23.35,42.26s-.06.02-.09.03c.03,0,.06-.02.09-.03Z"/>
      <path class="cls-1" d="M23.24,42.29s-.07.01-.1.01c.03,0,.07,0,.1-.01Z"/>
      <path class="cls-1" d="M23.38,17.85c-.07-.03-.15-.05-.24-.05s-.16.02-.23.05l.23.14.24-.14Z"/>
      <path class="cls-1" d="M23.69,19.19v-.24l-.28.16c-.09.05-.18.07-.28.07s-.19-.02-.28-.07l-.28-.16v.24c0,.31.25.56.56.56s.56-.25.56-.56Z"/>
      <path class="cls-1" d="M23.69,22.53v-1.67c0-.31-.25-.56-.56-.56s-.56.25-.56.56v1.67c0,.31.25.56.56.56s.56-.25.56-.56Z"/>
      <path class="cls-1" d="M23.69,39.24v-1.67c0-.31-.25-.56-.56-.56s-.56.25-.56.56v1.67c0,.31.25.56.56.56s.56-.25.56-.56Z"/>
      <path class="cls-1" d="M23.69,32.56v-1.67c0-.31-.25-.56-.56-.56s-.56.25-.56.56v1.67c0,.31.25.56.56.56s.56-.25.56-.56Z"/>
      <path class="cls-1" d="M23.69,35.9v-1.67c0-.31-.25-.56-.56-.56s-.56.25-.56.56v1.67c0,.31.25.56.56.56s.56-.25.56-.56Z"/>
      <path class="cls-1" d="M23.69,25.88v-1.67c0-.31-.25-.56-.56-.56s-.56.25-.56.56v1.67c0,.31.25.56.56.56s.56-.25.56-.56Z"/>
      <path class="cls-1" d="M23.69,29.22v-1.67c0-.31-.25-.56-.56-.56s-.56.25-.56.56v1.67c0,.31.25.56.56.56s.56-.25.56-.56Z"/>
      <path class="cls-1" d="M23.69,41.75v-.83s0-.08-.01-.12c-.06-.25-.28-.44-.54-.44s-.49.19-.54.44c0,.04-.01.08-.01.12v.83c0,.23.14.42.33.51,0,0,0,0,.01,0,.03.01.06.02.09.03,0,0,.02,0,.02,0,.03,0,.07.01.1.01s.07,0,.1-.01c.01,0,.02,0,.03,0,.03,0,.06-.02.09-.03,0,0,0,0,.01,0,.2-.09.33-.28.33-.51Z"/>
      <path class="cls-1" d="M12.14,12.93l.72.42s.07.04.11.05c.05.02.11.03.17.03.19,0,.38-.1.48-.28.13-.23.08-.52-.11-.69-.03-.03-.06-.05-.1-.07l-.72-.42c-.2-.11-.43-.09-.6.03,0,0,0,0-.01,0-.02.02-.05.04-.07.06,0,0-.01.01-.02.02-.02.02-.04.05-.06.08-.02.03-.03.06-.04.09,0,0,0,.02,0,.02,0,.03-.02.06-.02.09,0,0,0,0,0,.01-.02.21.08.43.27.54Z"/>
      <path class="cls-1" d="M16.84,15.64l1.32.76c.09.05.18.08.28.08.19,0,.38-.1.48-.28.15-.26.06-.61-.2-.76l-1.32-.77c-.27-.15-.61-.06-.76.2-.15.27-.06.61.2.76Z"/>
      <path class="cls-1" d="M21.37,16.97l-1.33-.76c-.27-.15-.61-.06-.76.2-.15.27-.06.61.2.76l1.32.77c.09.05.18.07.28.07.19,0,.38-.1.48-.28.15-.27.06-.61-.2-.76Z"/>
      <path class="cls-1" d="M14.19,14.11l1.32.77c.09.05.18.08.28.08.19,0,.38-.1.48-.28.15-.27.06-.61-.2-.76l-1.32-.77c-.27-.15-.61-.06-.76.2-.15.27-.06.61.2.76Z"/>
      <path class="cls-1" d="M23.14,19.19c.1,0,.19-.02.28-.07l.28-.16.45-.26c.27-.15.36-.49.2-.76-.15-.27-.49-.36-.76-.2l-.21.12-.24.14-.23-.14-.21-.12c-.27-.15-.61-.06-.76.2-.15.27-.07.6.2.76l.44.26.28.16c.09.05.18.07.28.07Z"/>
      <path class="cls-1" d="M25.19,18.01c.09,0,.19-.02.28-.07l1.32-.77c.27-.15.36-.49.2-.76-.15-.27-.49-.36-.76-.2l-1.32.76c-.27.15-.36.49-.2.76.1.18.29.28.48.28Z"/>
      <path class="cls-1" d="M30.49,14.95c.09,0,.19-.02.28-.08l1.33-.77c.27-.15.36-.49.2-.76-.15-.27-.49-.36-.76-.2l-1.33.77c-.27.15-.36.49-.2.76.1.18.29.28.48.28Z"/>
      <path class="cls-1" d="M27.84,16.48c.09,0,.19-.02.28-.08l1.32-.76c.27-.15.36-.49.2-.76-.15-.27-.49-.36-.76-.2l-1.32.77c-.27.15-.36.49-.2.76.1.18.29.28.48.28Z"/>
      <path class="cls-1" d="M34.39,12.28s0-.02,0-.02c-.01-.03-.02-.06-.04-.09-.02-.03-.04-.06-.06-.08,0,0-.01-.01-.02-.02-.02-.02-.04-.04-.07-.06,0,0,0,0-.01,0-.17-.12-.41-.14-.6-.03l-.72.42s-.07.05-.1.07c-.19.17-.24.46-.11.69.1.18.29.28.48.28.06,0,.11,0,.17-.03.04-.01.08-.03.11-.05l.72-.42c.2-.11.3-.33.27-.54,0,0,0,0,0-.01,0-.03-.01-.06-.02-.09Z"/>
      <path class="cls-1" d="M37.33,9.73v.56h1.51c.31,0,.56-.25.56-.56s-.25-.56-.56-.56h-2.06c.31,0,.56.25.56.56Z"/>
      <path class="cls-1" d="M36.21,10.29v-.56c0-.31.25-.56.56-.56h-2.07c-.31,0-.56.25-.56.56s.25.56.56.56h1.51Z"/>
      <path class="cls-1" d="M37.33,23.09c0-.31-.25-.56-.56-.56s-.56.25-.56.56v1.67c0,.31.25.56.56.56s.56-.25.56-.56v-1.67Z"/>
      <path class="cls-1" d="M37.33,26.43c0-.31-.25-.56-.56-.56s-.56.25-.56.56v1.67c0,.31.25.56.56.56s.56-.25.56-.56v-1.67Z"/>
      <path class="cls-1" d="M37.33,19.75c0-.31-.25-.56-.56-.56s-.56.25-.56.56v1.67c0,.31.25.56.56.56s.56-.25.56-.56v-1.67Z"/>
      <path class="cls-1" d="M36.77,35.89c-.11,0-.2.03-.29.08h.57c-.08-.05-.18-.08-.28-.08Z"/>
      <path class="cls-1" d="M37.33,29.77c0-.31-.25-.56-.56-.56s-.56.25-.56.56v1.67c0,.31.25.56.56.56s.56-.25.56-.56v-1.67Z"/>
      <path class="cls-1" d="M36.77,32.55c-.31,0-.56.25-.56.56v1.67c0,.31.25.56.56.56s.56-.25.56-.56v-1.67c0-.31-.25-.56-.56-.56Z"/>
      <path class="cls-1" d="M37.33,16.41c0-.31-.25-.56-.56-.56s-.56.25-.56.56v1.67c0,.31.25.56.56.56s.56-.25.56-.56v-1.67Z"/>
      <path class="cls-1" d="M37.33,13.07c0-.31-.25-.56-.56-.56s-.56.25-.56.56v1.67c0,.31.25.56.56.56s.56-.25.56-.56v-1.67Z"/>
      <path class="cls-1" d="M36.21,9.73v1.67c0,.31.25.56.56.56s.56-.25.56-.56v-1.67c0-.31-.25-.56-.56-.56s-.56.25-.56.56Z"/>
      <path class="cls-1" d="M35.15,37.08h3.76c.31,0,.56-.25.56-.56s-.25-.56-.56-.56h-3.76c-.31,0-.56.25-.56.56s.25.56.56.56Z"/>
      <path class="cls-1" d="M17.03,17.38l-2.25-1.23c-.17-.09-.38-.09-.55.01-.17.1-.27.28-.27.48v4.41c0,.2.11.39.29.49l2.25,1.23c.08.04.18.07.27.07.1,0,.2-.03.29-.08.17-.1.27-.28.27-.48v-4.41c0-.2-.11-.39-.29-.49ZM16.21,21.35l-1.14-.62v-3.14l1.14.62v3.14Z"/>
      <path class="cls-1" d="M21.05,19.39l-2.25-1.23c-.17-.09-.38-.09-.55.01-.17.1-.27.28-.27.48v4.41c0,.2.11.39.29.49l2.25,1.23c.08.05.18.07.27.07s.2-.03.28-.08c.17-.1.27-.28.27-.48v-4.41c0-.2-.11-.39-.29-.49ZM20.23,23.36l-1.14-.62v-3.14l1.14.62v3.15Z"/>
      <path class="cls-1" d="M16.86,24.21l-2.25-1.23c-.17-.09-.38-.09-.55.01-.17.1-.27.28-.27.48v4.41c0,.2.11.39.29.49l2.25,1.23c.08.04.17.07.27.07.1,0,.2-.02.28-.08.17-.1.27-.28.27-.48v-4.41c0-.2-.11-.39-.29-.49ZM16.04,28.18l-1.14-.62v-3.15l1.14.62v3.15Z"/>
      <path class="cls-1" d="M20.88,26.22l-2.25-1.23c-.17-.09-.38-.09-.55.01-.17.1-.27.28-.27.48v4.41c0,.2.11.39.29.49l2.25,1.23c.08.04.18.07.27.07.1,0,.2-.03.29-.08.17-.1.27-.28.27-.48v-4.41c0-.2-.11-.39-.29-.49ZM20.06,30.18l-1.14-.62v-3.15l1.14.62v3.15Z"/>
      <path class="cls-1" d="M16.86,30.8l-2.25-1.22c-.17-.09-.38-.09-.55,0-.17.1-.27.28-.27.48v4.41c0,.2.11.39.29.49l2.25,1.23c.08.04.17.07.27.07.1,0,.2-.03.28-.08.17-.1.27-.28.27-.48v-4.41c0-.2-.11-.39-.29-.49ZM16.04,34.76l-1.14-.62v-3.15l1.14.62v3.15Z"/>
      <path class="cls-1" d="M20.88,32.81l-2.25-1.23c-.17-.09-.38-.09-.55.01-.17.1-.27.28-.27.48v4.41c0,.2.11.39.29.49l2.25,1.23c.08.04.18.07.27.07.1,0,.2-.03.29-.08.17-.1.27-.28.27-.48v-4.41c0-.2-.11-.39-.29-.49ZM20.06,36.77l-1.14-.62v-3.15l1.14.62v3.15Z"/>
    </g>
  </g>
</svg>