<?xml version="1.0" encoding="UTF-8"?>
<svg id="Layer_2" data-name="Layer 2" xmlns="http://www.w3.org/2000/svg" viewBox="0 0 48 48">
  <defs>
    <style>
      .cls-1 {
        fill: #00131e;
      }

      .cls-1, .cls-2 {
        stroke-width: 0px;
      }

      .cls-2 {
        fill: #ffc876;
      }
    </style>
  </defs>
  <g id="Layer_1-2" data-name="Layer 1">
    <rect class="cls-2" width="48" height="48" rx="12" ry="12"/>
    <g>
      <path class="cls-1" d="M12.93,20.68h-.09s.03.03.04.04l.05-.04Z"/>
      <path class="cls-1" d="M35.8,23.83h-.57v12.8h1.03v-13.08c-.09.16-.26.28-.45.28Z"/>
      <path class="cls-1" d="M13.13,36.63v-12.8h-.46c-.28,0-.51-.23-.51-.51h-.06v13.31h1.03Z"/>
      <path class="cls-1" d="M14.73,23.32c0-.28-.23-.51-.51-.51h-1.54c-.28,0-.51.23-.51.51s.23.51.51.51h1.54c.28,0,.51-.23.51-.51Z"/>
      <path class="cls-1" d="M15.76,23.83h1.54c.28,0,.51-.23.51-.51s-.23-.51-.51-.51h-1.54c-.28,0-.51.23-.51.51s.23.51.51.51Z"/>
      <path class="cls-1" d="M28.09,23.83h1.54c.28,0,.51-.23.51-.51s-.23-.51-.51-.51h-1.54c-.28,0-.51.23-.51.51s.23.51.51.51Z"/>
      <path class="cls-1" d="M31.18,23.83h1.54c.1,0,.2-.03.28-.08,0-.18.09-.33.23-.42,0,0,0,0,0,0,0-.28-.23-.51-.51-.51h-1.54c-.28,0-.51.23-.51.51s.23.51.51.51Z"/>
      <path class="cls-1" d="M18.84,23.83h1.54c.28,0,.51-.23.51-.51s-.23-.51-.51-.51h-1.54c-.28,0-.51.23-.51.51s.23.51.51.51Z"/>
      <path class="cls-1" d="M21.93,23.83h1.54c.28,0,.51-.23.51-.51s-.23-.51-.51-.51h-1.54c-.28,0-.51.23-.51.51s.23.51.51.51Z"/>
      <path class="cls-1" d="M25.01,23.83h1.54c.28,0,.51-.23.51-.51s-.23-.51-.51-.51h-1.54c-.28,0-.51.23-.51.51s.23.51.51.51Z"/>
      <path class="cls-1" d="M33.1,19.35l1.16,1.01c.1.08.22.13.34.13.14,0,.29-.06.39-.18h0c.19-.21.16-.54-.05-.72l-1.16-1.01c-.21-.19-.54-.16-.73.05h0c-.19.21-.16.54.05.73Z"/>
      <path class="cls-1" d="M26.12,13.27l1.16,1.01c.1.08.22.13.34.13.14,0,.29-.06.39-.18h0c.19-.21.16-.54-.05-.73l-1.16-1.01c-.21-.19-.54-.16-.73.05h0c-.19.21-.16.54.05.72Z"/>
      <path class="cls-1" d="M35.42,21.38l1.16,1.01c.1.09.22.13.34.13.14,0,.29-.06.39-.18h0c.19-.22.16-.54-.05-.73l-1.16-1.01c-.21-.19-.54-.16-.73.05h0c-.19.21-.16.54.05.73Z"/>
      <path class="cls-1" d="M28.45,15.3l1.16,1.01c.1.09.22.13.34.13.14,0,.29-.06.39-.18h0c.19-.21.16-.54-.05-.73l-1.16-1.01c-.21-.19-.54-.16-.73.05h0c-.19.21-.16.54.05.73Z"/>
      <path class="cls-1" d="M11.68,22.46l1.16-1.02c.21-.19.24-.51.05-.73h0s-.03-.03-.04-.04c-.19-.17-.48-.18-.68,0l-1.16,1.02c-.21.19-.23.51-.05.73h0c.1.12.24.17.39.17.12,0,.24-.04.34-.13Z"/>
      <path class="cls-1" d="M37.35,22.8c-.28,0-.51.23-.51.51s.23.51.51.51h1.08c.21,0,.41-.13.48-.33.08-.2.02-.43-.14-.57l-.34-.3c-.21-.19-.54-.16-.72.05h0s-.06.08-.08.12h-.27Z"/>
      <path class="cls-1" d="M15.98,18.52c.12,0,.24-.04.34-.13l1.16-1.02c.21-.19.23-.51.05-.73h0c-.19-.21-.51-.24-.72-.05l-1.16,1.02c-.21.19-.24.51-.05.72h0c.1.12.24.18.39.18Z"/>
      <path class="cls-1" d="M20.96,14.33l1.16-1.02c.21-.19.23-.51.05-.72h0c-.19-.21-.51-.24-.73-.05l-1.16,1.02c-.21.19-.23.51-.05.73h0c.1.12.24.18.39.18.12,0,.24-.04.34-.13Z"/>
      <path class="cls-1" d="M18.64,16.36l1.16-1.02c.21-.19.24-.51.05-.73h0c-.19-.21-.51-.24-.73-.05l-1.16,1.02c-.21.19-.24.51-.05.73h0c.1.12.24.17.39.17.12,0,.24-.04.34-.13Z"/>
      <path class="cls-1" d="M11.13,22.8h-.53s-.02-.03-.04-.05h0c-.19-.21-.51-.23-.73-.05l-.25.22c-.16.14-.22.37-.14.57.08.2.27.33.48.33h1.2c.28,0,.51-.23.51-.51s-.23-.51-.51-.51Z"/>
      <path class="cls-1" d="M14,20.43l1.16-1.02c.21-.19.24-.51.05-.73h0c-.19-.21-.51-.23-.73-.05l-1.16,1.02c-.21.19-.23.51-.05.73h0c.1.12.24.17.39.17.12,0,.24-.04.34-.13Z"/>
      <path class="cls-1" d="M23.27,12.3l.86-.75.82.72c.21.19.54.16.73-.05h0c.19-.21.16-.54-.05-.73l-1.16-1.01c-.2-.18-.51-.17-.7.02,0,0-.01.01-.02.02l-1.16,1.02c-.21.19-.23.51-.05.73h0c.1.12.24.18.39.18.12,0,.24-.04.34-.13Z"/>
      <path class="cls-1" d="M30.77,17.32l1.16,1.01c.1.08.22.13.34.13.14,0,.29-.06.39-.18h0c.19-.21.16-.54-.05-.73l-1.16-1.01c-.21-.19-.54-.17-.73.05h0c-.19.21-.16.54.05.72Z"/>
      <path class="cls-1" d="M35.8,22.8h-1.54c-.28,0-.5.22-.51.5.17.09.28.26.28.45v.02c.07.04.15.06.23.06h1.54c.2,0,.37-.11.45-.28.04-.07.06-.15.06-.24,0-.28-.23-.51-.51-.51Z"/>
      <path class="cls-1" d="M20.74,26.59h-4.2c-.28,0-.51.23-.51.51v4.13c0,.28.23.51.51.51h4.2c.28,0,.51-.23.51-.51v-4.13c0-.28-.23-.51-.51-.51ZM20.23,30.72h-3.18v-3.1h3.18v3.1Z"/>
      <path class="cls-1" d="M30.5,26.59h-4.2c-.28,0-.51.23-.51.51v4.13c0,.28.23.51.51.51h4.2c.28,0,.51-.23.51-.51v-4.13c0-.28-.23-.51-.51-.51ZM29.98,30.72h-3.18v-3.1h3.18v3.1Z"/>
      <path class="cls-1" d="M34.03,23.75c0-.2-.11-.37-.28-.45-.07-.04-.15-.06-.23-.06-.1,0-.19.03-.26.07,0,0-.01,0-.02,0-.14.09-.23.24-.23.42,0,0,0,0,0,0v12.87h1.03v-12.87Z"/>
      <path class="cls-1" d="M40.39,36.63H7.61c-.28,0-.51.23-.51.51s.23.52.51.52h32.79c.28,0,.51-.23.51-.52s-.23-.51-.51-.51Z"/>
    </g>
  </g>
</svg>