<?xml version="1.0" encoding="UTF-8"?>
<svg id="Layer_2" data-name="Layer 2" xmlns="http://www.w3.org/2000/svg" viewBox="0 0 48 48">
  <defs>
    <style>
      .cls-1, .cls-2 {
        stroke-width: 0px;
      }

      .cls-2 {
        fill: #ac6aff;
      }
    </style>
  </defs>
  <g id="Layer_1-2" data-name="Layer 1">
    <rect class="cls-2" width="48" height="48" rx="12" ry="12"/>
    <g id="Layer_1-2" data-name="Layer 1-2">
      <g>
        <path class="cls-1" d="M24.34,19.57c-.15.02-.3.04-.45.04-.2,0-.39-.02-.58-.06l-.73,1.81h2.56l-.8-1.79h0Z"/>
        <polygon class="cls-1" points="25.55 22.26 22.22 22.26 22.02 22.77 25.77 22.77 25.55 22.26"/>
        <path class="cls-1" d="M33.35,37.84H14.75c-.39.43-.9.75-1.48.9h22.25c-.85,0-1.62-.35-2.17-.9Z"/>
        <polygon class="cls-1" points="15.55 23.67 19.25 23.67 19.61 22.77 15.55 22.77 15.55 23.67"/>
        <polygon class="cls-1" points="25.77 22.77 22.02 22.77 21.66 23.67 26.18 23.67 25.77 22.77"/>
        <polygon class="cls-1" points="28.63 23.67 32.45 23.67 32.45 22.77 28.23 22.77 28.63 23.67"/>
        <path class="cls-1" d="M14.75,37.84c.5-.55.8-1.27.8-2.06v-14.87c0-1.69-1.38-3.07-3.07-3.07s-3.07,1.38-3.07,3.07v14.87c0,1.69,1.38,3.07,3.07,3.07.27,0,.54-.04.79-.1.58-.15,1.09-.47,1.48-.9h0ZM12.48,38.81c-1.66,0-3-1.35-3-3,0-.8.32-1.53.83-2.07v-12.84c0-1.19.97-2.17,2.17-2.17s2.17.97,2.17,2.17v12.84c.52.54.84,1.27.84,2.07,0,1.65-1.35,3-3,3Z"/>
        <path class="cls-1" d="M15.48,35.81c0-.8-.32-1.53-.84-2.07-.55-.57-1.32-.93-2.17-.93s-1.62.36-2.17.93c-.52.54-.83,1.27-.83,2.07,0,1.65,1.35,3,3,3s3-1.35,3-3ZM12.48,37.91c-1.16,0-2.1-.94-2.1-2.1s.94-2.1,2.1-2.1,2.1.94,2.1,2.1-.94,2.1-2.1,2.1Z"/>
        <path class="cls-1" d="M12.48,34.28c-.91,0-1.65.74-1.65,1.65s.74,1.65,1.65,1.65,1.65-.74,1.65-1.65-.74-1.65-1.65-1.65ZM12.48,36.68c-.41,0-.75-.33-.75-.75s.33-.75.75-.75.75.33.75.75-.34.75-.75.75Z"/>
        <path class="cls-1" d="M35.52,17.73c-1.69,0-3.07,1.38-3.07,3.07v14.87c0,.84.34,1.61.9,2.17.56.56,1.32.9,2.17.9,1.69,0,3.07-1.38,3.07-3.07v-14.87c0-1.69-1.38-3.07-3.07-3.07h0ZM35.52,38.71c-1.65,0-3-1.35-3-3,0-.8.32-1.53.83-2.07v-12.84c0-1.2.97-2.17,2.17-2.17s2.17.97,2.17,2.17v12.84c.52.54.83,1.27.83,2.07,0,1.66-1.35,3-3,3h0Z"/>
        <path class="cls-1" d="M37.68,33.64c-.55-.57-1.32-.93-2.17-.93s-1.62.36-2.17.93c-.52.54-.83,1.27-.83,2.07,0,1.66,1.35,3,3,3s3-1.35,3-3c0-.8-.32-1.53-.83-2.07h0ZM35.52,37.81c-1.16,0-2.1-.94-2.1-2.1s.94-2.1,2.1-2.1,2.1.94,2.1,2.1-.94,2.1-2.1,2.1Z"/>
        <path class="cls-1" d="M35.52,34.18c-.91,0-1.65.74-1.65,1.65s.74,1.65,1.65,1.65,1.65-.74,1.65-1.65-.74-1.65-1.65-1.65ZM35.52,36.58c-.41,0-.75-.33-.75-.75s.34-.75.75-.75.75.33.75.75-.33.75-.75.75Z"/>
        <polygon class="cls-1" points="25.14 21.36 22.59 21.36 22.22 22.26 25.55 22.26 25.14 21.36"/>
        <path class="cls-1" d="M23.8,11.98v-1.88s.02-.04.04-.04.04.02.04.04v1.88h.9v-1.88c0-.52-.42-.94-.94-.94s-.94.42-.94.94v1.88h.9Z"/>
        <path class="cls-1" d="M23.2,13.9v-1.02h1.28v1c.32.07.63.19.9.36v-1.8c0-.25-.2-.45-.45-.45h-2.18c-.25,0-.45.2-.45.45v1.87c.27-.18.58-.32.9-.4h0Z"/>
        <path class="cls-1" d="M19.25,23.67l-1.35,3.39c-.09.23.02.49.25.58l.16.07v-.11c.02-.26.24-.45.5-.44.26.02.45.24.44.49,0,.08-.03.16-.08.23l-.1.14.31.13c.06.02.11.04.17.04s.12-.01.17-.04c.11-.05.2-.14.25-.25l1.69-4.24.36-.9.2-.5.36-.9.73-1.81c-.3-.06-.59-.17-.84-.32l-3.16,7.91-.4-.17,3.2-8c-.26-.21-.49-.46-.67-.75l-1.81,4.53-.36.9h0Z"/>
        <path class="cls-1" d="M25.58,19.06l3.55,7.91-.4.18-3.53-7.86c-.27.14-.56.23-.86.28l.8,1.79.41.9.22.5.41.9,1.91,4.25c.08.17.24.27.41.27.06,0,.12-.01.18-.04l.2-.09-.12-.18c-.14-.21-.08-.5.13-.65.21-.14.5-.08.65.13.05.07.07.15.08.23v.14s.28-.12.28-.12c.11-.05.2-.14.24-.25.04-.11.04-.24,0-.35l-1.5-3.34-.4-.9-1.97-4.39c-.19.27-.42.5-.68.69h0Z"/>
        <path class="cls-1" d="M22.1,18.98c.11.09.24.17.37.25.26.15.54.26.84.32.19.04.38.06.58.06.15,0,.3-.01.45-.04.31-.05.6-.14.86-.28.13-.07.25-.14.37-.23.26-.19.49-.42.68-.69.33-.47.53-1.04.53-1.66,0-1.05-.56-1.97-1.4-2.48-.28-.16-.58-.29-.9-.36-.19-.04-.39-.06-.59-.06-.24,0-.47.03-.69.08-.33.08-.63.21-.9.4-.78.52-1.3,1.41-1.3,2.41,0,.56.16,1.08.43,1.52.18.29.41.54.67.75h0ZM23.89,14.72c1.1,0,1.99.89,1.99,1.99s-.89,1.99-1.99,1.99-1.99-.89-1.99-1.99.89-1.99,1.99-1.99Z"/>
        <path class="cls-1" d="M19.07,28.03l.1-.14c.04-.07.07-.14.08-.23.01-.26-.18-.48-.44-.49-.26-.01-.48.18-.49.44v.11s-.1,1.62-.1,1.62l.86-1.3h0Z"/>
        <path class="cls-1" d="M29.45,28.6c.08.04.16.09.23.13l-.06-1.01v-.14c-.01-.08-.04-.16-.09-.23-.14-.22-.43-.27-.65-.13-.21.14-.28.43-.13.65l.12.18.32.49c.08,0,.17,0,.25.05h0Z"/>
        <path class="cls-1" d="M29.45,28.6c-.08-.04-.16-.06-.25-.05-.15.01-.29.09-.37.23,0,0,0,.01,0,.02-.11.22-.03.48.19.59.41.22.72.47.89.71.09.12.23.19.37.19.07,0,.14-.02.21-.05.02-.01.04-.02.06-.04.2-.15.25-.43.1-.63-.22-.3-.55-.59-.96-.84-.08-.05-.15-.09-.23-.13h0Z"/>
        <path class="cls-1" d="M22.94,32.78c-.45-.03-.88-.08-1.3-.15-.25-.04-.47.13-.52.37,0,0,0,0,0,0-.04.25.13.48.37.52.45.07.91.13,1.39.16h.03c.24,0,.43-.18.45-.42h0c.01-.25-.17-.46-.42-.48h0Z"/>
        <path class="cls-1" d="M18.18,31.26c-.21-.22-.32-.45-.32-.66,0-.06-.01-.12-.03-.17-.07-.16-.23-.28-.42-.28-.25,0-.45.2-.45.45,0,.46.2.89.58,1.29.09.09.21.14.32.14s.23-.04.31-.13c0,0,.02-.02.02-.03.15-.18.15-.44-.01-.61h0Z"/>
        <path class="cls-1" d="M23.98,28.38c.44,0,.89.02,1.31.06h.04c.23,0,.42-.17.45-.41h0c.02-.26-.16-.47-.41-.5-.45-.04-.92-.06-1.39-.06-.25,0-.45.2-.45.45,0,.06.01.12.03.17.07.16.23.28.42.28h0Z"/>
        <path class="cls-1" d="M26.59,28.61c.45.08.87.19,1.26.31.04.01.09.02.13.02.19,0,.36-.12.43-.31,0,0,0,0,0-.01.08-.24-.06-.49-.3-.57-.42-.13-.88-.25-1.37-.33-.25-.05-.48.12-.52.36h0c-.04.25.12.48.36.53h0Z"/>
        <path class="cls-1" d="M25.57,32.73c-.43.04-.87.07-1.31.08-.25,0-.44.21-.44.45h0c0,.25.2.45.45.45h0c.47,0,.94-.04,1.39-.08.25-.03.43-.25.4-.5h0c-.03-.25-.25-.43-.49-.4h0Z"/>
        <path class="cls-1" d="M28.11,32.2c-.38.13-.8.25-1.25.34-.24.05-.4.28-.35.52h0c.04.22.23.37.44.37.03,0,.06,0,.09,0,.49-.1.95-.23,1.36-.37.23-.08.36-.34.28-.57,0,0,0,0,0-.01-.09-.23-.34-.35-.57-.26h0Z"/>
        <path class="cls-1" d="M30.02,30.92c-.12.25-.39.52-.78.75-.21.13-.27.39-.16.6,0,0,0,.01,0,.02.08.14.23.21.38.21.08,0,.16-.02.24-.07.54-.33.91-.71,1.11-1.13.11-.22.01-.49-.21-.6-.03-.01-.05-.02-.08-.03-.21-.06-.43.04-.52.24h0Z"/>
        <path class="cls-1" d="M20.36,32.36c-.45-.13-.85-.27-1.2-.44-.22-.1-.48-.01-.59.2,0,0,0,0-.01.02-.11.23-.01.5.21.6.4.19.85.35,1.34.49.04.01.08.02.12.02.2,0,.38-.13.43-.33h0c.06-.25-.08-.49-.31-.56h0Z"/>
      </g>
    </g>
  </g>
</svg>