<?xml version="1.0" encoding="UTF-8"?>
<svg id="Layer_2" data-name="Layer 2" xmlns="http://www.w3.org/2000/svg" viewBox="0 0 48 48">
  <defs>
    <style>
      .cls-1 {
        fill: #00131e;
      }

      .cls-1, .cls-2 {
        stroke-width: 0px;
      }

      .cls-2 {
        fill: #3fa9f5;
      }
    </style>
  </defs>
  <g id="Layer_2-2" data-name="Layer 2">
    <g id="Layer_1-2" data-name="Layer 1-2">
      <rect class="cls-2" width="48" height="48" rx="12" ry="12"/>
    </g>
    <g>
      <path class="cls-1" d="M23.2,32.57v-.5h-.25c-.28,0-.5.23-.5.5s.23.5.5.5h.76c-.28,0-.5-.23-.5-.5Z"/>
      <path class="cls-1" d="M21.55,32.07h-1.4c-.28,0-.5.23-.5.5s.22.5.5.5h1.4c.28,0,.5-.23.5-.5s-.23-.5-.5-.5Z"/>
      <path class="cls-1" d="M18.75,32.07h-1.4c-.28,0-.5.23-.5.5s.23.5.5.5h1.4c.28,0,.5-.23.5-.5s-.22-.5-.5-.5Z"/>
      <path class="cls-1" d="M15.96,32.07h-1.4c-.28,0-.5.23-.5.5s.22.5.5.5h1.4c.28,0,.5-.23.5-.5s-.23-.5-.5-.5Z"/>
      <path class="cls-1" d="M13.16,32.07h-.25v-.25c0-.28-.23-.5-.5-.5s-.5.22-.5.5v.75c0,.28.22.5.5.5h.75c.28,0,.5-.23.5-.5s-.23-.5-.5-.5Z"/>
      <path class="cls-1" d="M12.91,23.68c-.01-.27-.23-.48-.5-.48s-.5.22-.5.5v.61h0c.27-.3.62-.52,1-.63Z"/>
      <path class="cls-1" d="M12.91,30.46v-.72l-.92,1c.09.13.24.22.42.22.28,0,.5-.23.5-.5Z"/>
      <path class="cls-1" d="M12.91,22.34v-.25h.25c.28,0,.5-.23.5-.5s-.23-.5-.5-.5h-.75c-.28,0-.5.23-.5.5v.76c0,.28.22.5.5.5s.5-.23.5-.5Z"/>
      <path class="cls-1" d="M14.56,22.09h1.01c-.27-.32-.5-.65-.71-1.01h-.3c-.28,0-.5.23-.5.5s.22.5.5.5Z"/>
      <path class="cls-1" d="M29.75,32.57v-.5h-5.55v-7.91c-.33.14-.66.26-1.01.35v8.06c0,.28.23.5.5.5h6.55c-.28,0-.5-.23-.5-.5Z"/>
      <path class="cls-1" d="M26.96,22.09h7.54v5.49h.5c.28,0,.5.22.5.5v-6.5c0-.28-.23-.5-.5-.5h-7.34c-.2.35-.44.69-.7,1.01Z"/>
      <path class="cls-1" d="M35,27.58h-4.74c-.28,0-.5.22-.5.5v4.49c0,.28.22.5.5.5h4.74c.28,0,.5-.23.5-.5v-4.49c0-.28-.23-.5-.5-.5ZM34.5,32.07h-3.74v-3.48h3.74v3.48Z"/>
      <path class="cls-1" d="M15.57,22.09c.11.13.22.25.33.38l.33-.36c.19-.21.51-.22.71-.03-1.26-1.15-1.99-2.73-2.07-4.44-.07-1.71.52-3.34,1.68-4.6,1.21-1.32,2.93-2.08,4.72-2.08,1.6,0,3.14.6,4.32,1.68,2.6,2.38,2.78,6.44.39,9.04-1.21,1.32-2.93,2.08-4.72,2.08-1.61,0-3.14-.6-4.32-1.68.21.19.22.51.03.71l-.33.36c1.31,1.05,2.93,1.62,4.62,1.62.66,0,1.31-.09,1.94-.26.34-.09.68-.21,1.01-.35.95-.41,1.81-1.02,2.52-1.79.08-.09.16-.18.24-.27.27-.32.5-.66.7-1.01,1.71-2.94,1.21-6.79-1.4-9.18-1.37-1.26-3.15-1.95-5-1.95-2.07,0-4.06.88-5.46,2.4-1.34,1.46-2.02,3.35-1.94,5.33.05,1.22.4,2.38.99,3.4.21.35.44.69.71,1.01Z"/>
      <path class="cls-1" d="M17.95,20.98c.91.83,2.08,1.29,3.31,1.29,1.37,0,2.69-.58,3.62-1.59,1.83-1.99,1.69-5.1-.3-6.93-.91-.83-2.08-1.29-3.31-1.29-1.37,0-2.69.58-3.62,1.59-1.83,2-1.69,5.1.3,6.93ZM21.26,13.46c.98,0,1.91.36,2.63,1.02,1.58,1.45,1.69,3.92.24,5.51-.74.8-1.79,1.27-2.88,1.27-.98,0-1.91-.36-2.63-1.02-1.59-1.45-1.69-3.93-.24-5.51.74-.8,1.78-1.26,2.88-1.26Z"/>
      <path class="cls-1" d="M16.97,22.79c.19-.21.17-.52-.03-.71-.2-.19-.52-.17-.71.03l-.33.36-1.28,1.4c.15.08.29.18.41.29.13.12.24.25.33.38l1.28-1.4.33-.36Z"/>
      <path class="cls-1" d="M11.99,30.74l.92-1,2.26-2.46c.7-.77.76-1.91.19-2.73-.09-.14-.2-.27-.33-.38-.13-.12-.26-.21-.41-.29-.33-.18-.7-.28-1.08-.28-.22,0-.43.03-.63.09-.38.11-.73.33-1,.62h0s-3.88,4.25-3.88,4.25c-.4.44-.6,1-.58,1.59.03.59.28,1.13.71,1.53.41.37.94.58,1.49.58.62,0,1.21-.26,1.63-.72l.72-.78ZM8.84,30.92c-.24-.22-.37-.51-.39-.83-.01-.32.1-.63.31-.86l3.89-4.24c.23-.25.55-.39.88-.39.3,0,.59.11.81.32.49.45.52,1.21.07,1.69l-3.89,4.25c-.23.25-.55.39-.89.39-.3,0-.59-.11-.81-.31Z"/>
      <path class="cls-1" d="M40.06,20.12h-1.58c.28,0,.5.23.5.5v.5h1.08c.28,0,.5-.23.5-.5s-.23-.5-.5-.5Z"/>
      <path class="cls-1" d="M38.47,20.12h-1.58c-.28,0-.5.23-.5.5s.22.5.5.5h1.08v-.5c0-.28.23-.5.5-.5Z"/>
      <path class="cls-1" d="M33.95,36.24c0,.28.23.5.5.5h1.51c.28,0,.5-.22.5-.5s-.22-.5-.5-.5h-1.51c-.28,0-.5.23-.5.5Z"/>
      <path class="cls-1" d="M28.41,35.73c-.28,0-.5.23-.5.5s.22.5.5.5h1.51c.28,0,.5-.22.5-.5s-.23-.5-.5-.5h-1.51Z"/>
      <path class="cls-1" d="M31.43,35.73c-.28,0-.5.23-.5.5s.23.5.5.5h1.51c.28,0,.5-.22.5-.5s-.23-.5-.5-.5h-1.51Z"/>
      <path class="cls-1" d="M38.47,32.21c-.28,0-.5.23-.5.5v1.51c0,.28.23.5.5.5s.5-.23.5-.5v-1.51c0-.28-.23-.5-.5-.5Z"/>
      <path class="cls-1" d="M38.47,23.14c-.28,0-.5.22-.5.5v1.51c0,.28.23.5.5.5s.5-.23.5-.5v-1.51c0-.28-.23-.5-.5-.5Z"/>
      <path class="cls-1" d="M38.47,35.23c-.28,0-.5.23-.5.5h-.5c-.28,0-.5.23-.5.5s.23.5.5.5h1c.28,0,.5-.22.5-.5v-.5c0-.28-.23-.5-.5-.5Z"/>
      <path class="cls-1" d="M38.47,29.19c-.28,0-.5.22-.5.5v1.51c0,.28.23.5.5.5s.5-.23.5-.5v-1.51c0-.28-.23-.5-.5-.5Z"/>
      <path class="cls-1" d="M38.47,26.16c-.28,0-.5.23-.5.5v1.51c0,.28.23.5.5.5s.5-.23.5-.5v-1.51c0-.28-.23-.5-.5-.5Z"/>
      <path class="cls-1" d="M26.9,36.74c.28,0,.5-.22.5-.5s-.23-.5-.5-.5h-.03v1.01h.03Z"/>
      <path class="cls-1" d="M38.47,20.12c-.28,0-.5.23-.5.5v1.51c0,.28.23.5.5.5s.5-.23.5-.5v-1.51c0-.28-.23-.5-.5-.5Z"/>
      <path class="cls-1" d="M26.36,34.43c-.28,0-.5.23-.5.5v2.61c0,.28.23.5.5.5s.5-.23.5-.5v-2.61c0-.28-.23-.5-.5-.5Z"/>
    </g>
  </g>
</svg>