<?xml version="1.0" encoding="UTF-8"?>
<svg id="Layer_2" data-name="Layer 2" xmlns="http://www.w3.org/2000/svg" viewBox="0 0 208.12 145">
  <defs>
    <style>
      .cls-1 {
        fill: #fff;
        stroke-width: 0px;
      }
    </style>
  </defs>
  <g id="Layer_1-2" data-name="Layer 1">
    <g>
      <path class="cls-1" d="M132.24,123.51c-19.64,0-36.53,6.92-39.66,15.66h79.33c-3.13-8.74-20.02-15.66-39.66-15.66Z"/>
      <path class="cls-1" d="M102.82,56.7h-27.39c0,.18-.01.36-.05.54,6.14,2.67,10.91,6.18,13.74,10.22,2.83-4.05,7.6-7.56,13.74-10.22-.03-.18-.05-.35-.05-.54Z"/>
      <path class="cls-1" d="M46.02,123.51c-19.64,0-36.53,6.92-39.66,15.66h79.33c-3.13-8.74-20.02-15.66-39.67-15.66Z"/>
      <path class="cls-1" d="M40.08,51.97v-4.06h23.52c1.18,0,2.24-.71,2.69-1.8.45-1.09.2-2.34-.63-3.18l-16.97-16.97,11.51-11.51,14.83,14.83c.84.84,2.09,1.08,3.18.63,1.09-.45,1.8-1.51,1.8-2.69V5.83h18.23v19.25c0,1.18.71,2.24,1.8,2.69,1.1.45,2.35.2,3.18-.63l13.77-13.77,13.64,13.63-15.91,15.91c-.83.84-1.08,2.09-.63,3.18.45,1.09,1.51,1.8,2.69,1.8h21.39v3.25l5.84-5.83v-.33c0-1.61-1.31-2.92-2.92-2.92h-17.27l12.99-12.99c1.14-1.14,1.14-2.98,0-4.12l-17.76-17.76c-.55-.54-1.29-.85-2.06-.85s-1.52.31-2.06.85l-10.85,10.85V2.92c0-1.61-1.31-2.92-2.92-2.92h-24.06c-1.61,0-2.92,1.31-2.92,2.92v17.25l-11.91-11.91c-1.14-1.14-2.99-1.14-4.12,0l-15.64,15.63c-1.14,1.14-1.14,2.99,0,4.12l14.06,14.06h-19.39c-1.61,0-2.92,1.31-2.92,2.92v7.55c1.9-.25,3.84-.44,5.83-.57Z"/>
      <path class="cls-1" d="M89.13,35.26c-10.82,0-19.61,8.8-19.61,19.61,0,.07,0,.15,0,.21,2.07.64,4.03,1.35,5.87,2.16.03-.18.05-.36.05-.54,0-.11.01-.21,0-.32-.06-.54-.09-1.03-.09-1.51,0-7.6,6.18-13.78,13.78-13.78s13.78,6.18,13.78,13.78c0,.48-.03.98-.08,1.5-.02.11,0,.22,0,.33,0,.19.02.36.05.54,1.84-.8,3.81-1.51,5.87-2.16,0-.07,0-.14,0-.21,0-10.81-8.8-19.61-19.62-19.61Z"/>
      <path class="cls-1" d="M2.92,139.17h3.44c3.13-8.74,20.02-15.66,39.66-15.66s36.53,6.92,39.67,15.66h.52v-9.15c-7.8-7.43-22.71-12.35-40.19-12.35s-32.38,4.92-40.19,12.34v-53.84c0-10.07,18.4-18.57,40.19-18.57s40.19,8.51,40.19,18.57c0-3.08,1.03-6,2.92-8.7-2.83-4.05-7.6-7.56-13.74-10.22-1.83-.8-3.8-1.52-5.87-2.16-6.84-2.11-14.85-3.32-23.5-3.32-2.02,0-3.99.07-5.94.2-1.99.13-3.93.32-5.83.57C14.33,55.23,0,64.65,0,76.17v65.91c0-1.61,1.31-2.92,2.92-2.92Z"/>
      <path class="cls-1" d="M171.75,72.88c.43,1.07.67,2.17.67,3.29v53.84c-7.81-7.42-22.71-12.34-40.19-12.34s-32.38,4.92-40.19,12.34v-53.84c0-9.98,18.12-18.43,39.67-18.56l5.69-5.69c-1.7-.1-3.42-.15-5.17-.15-8.65,0-16.66,1.21-23.5,3.32-2.06.64-4.03,1.35-5.87,2.16-6.14,2.67-10.91,6.18-13.74,10.22-1.88,2.7-2.92,5.62-2.92,8.7v63h6.36c3.13-8.74,20.02-15.66,39.66-15.66s36.53,6.92,39.66,15.66h3.44c1.61,0,2.92,1.31,2.92,2.92v-65.91c0-2.67-.78-5.21-2.2-7.6l-4.31,4.31Z"/>
      <path class="cls-1" d="M175.34,139.17H2.92c-1.61,0-2.92,1.31-2.92,2.92s1.31,2.91,2.92,2.91h172.42c1.61,0,2.92-1.31,2.92-2.91s-1.3-2.92-2.92-2.92Z"/>
      <path class="cls-1" d="M174.56,14.77s0,0,0,0l.02-.02h0Z"/>
      <path class="cls-1" d="M188.53,8.97c-5.12,0-9.95,1.94-13.64,5.48.54-.5,1.24-.78,1.98-.78.78,0,1.52.3,2.06.85l2.34,2.34c2.17-1.33,4.66-2.06,7.26-2.06,3.68,0,7.14,1.43,9.73,4.02,4.59,4.59,5.24,11.66,1.97,17l2.23,2.22c1.14,1.13,1.14,2.99,0,4.13l-2.09,2.08c.69-.52,1.35-1.09,1.97-1.72,7.69-7.69,7.72-20.18.06-27.84-3.7-3.7-8.62-5.73-13.86-5.73Z"/>
      <path class="cls-1" d="M121.8,67.63s.04-.07.06-.09c-.02.03-.04.07-.06.09Z"/>
      <path class="cls-1" d="M149.44,95.11s-.08.06-.13.09c.05-.03.09-.06.13-.09Z"/>
      <path class="cls-1" d="M148.89,95.42s-.07.02-.1.04c.03-.01.07-.02.1-.04Z"/>
      <path class="cls-1" d="M202.46,38.05l-2.23-2.22-9.54-9.54c1.13,1.13,1.13,2.98,0,4.12l-2.07,2.06,7.64,7.64-48.5,48.5-19.4-19.4,48.5-48.5,7.63,7.64,2.07-2.06c1.13-1.15,2.98-1.15,4.12-.02l-9.42-9.41-2.34-2.34c-.54-.55-1.28-.85-2.06-.85-.73,0-1.44.28-1.98.78-.03.03-.06.05-.08.07l-.24.23-.02.02-30.54,30.54-5.84,5.83-.76.77-5.69,5.69-9.53,9.53c.36-.36.8-.62,1.31-.75,1-.27,2.08.02,2.81.75l23.53,23.53c.74.74,1.03,1.8.76,2.81-.14.52-.42.98-.8,1.35.01-.02.03-.02.04-.04l21.92-21.91,4.31-4.31,24.31-24.32,2.09-2.08c1.14-1.14,1.14-3,0-4.13Z"/>
      <path class="cls-1" d="M122.18,67.14h0c-.12.13-.23.26-.33.4-.02.03-.04.07-.06.09-.16.25-.29.52-.37.81l-5.85,21.5c.27-1,1.06-1.78,2.06-2.04,1.01-.27,2.08.01,2.81.75l1.2,1.19,4.08-15.02,16.41,16.41-15.03,4.09,1.2,1.2c.73.73,1.02,1.8.76,2.8-.26,1-1.04,1.78-2.02,2.06l21.48-5.84c.08-.02.17-.06.25-.09.03-.01.07-.02.1-.04.15-.06.29-.14.42-.22.05-.03.09-.06.13-.09.12-.09.24-.18.35-.28.38-.37.66-.83.8-1.35.27-1.01-.02-2.08-.76-2.81l-23.53-23.53c-.73-.73-1.81-1.02-2.81-.75-.5.13-.95.39-1.31.75,0,0,0,0,0,0Z"/>
      <path class="cls-1" d="M129.08,99.33c.27-1-.02-2.07-.76-2.8l-1.2-1.2-5.47-5.48-1.2-1.19c-.73-.74-1.81-1.02-2.81-.75-1,.26-1.79,1.04-2.06,2.04,0,0,0,0,0,0l-2.94,10.81c-.27,1,.01,2.08.75,2.82.55.56,1.3.86,2.06.86.25,0,.51-.03.77-.1l10.8-2.94s.02-.01.03-.01c.99-.28,1.76-1.06,2.02-2.06ZM119.89,96.34l.76.75-1.04.28.28-1.04Z"/>
      <path class="cls-1" d="M190.69,26.27c-1.14-1.13-2.98-1.13-4.12.02l-2.07,2.06-38.98,38.99c-1.14,1.13-1.14,2.98,0,4.12.57.57,1.31.85,2.06.85s1.49-.28,2.06-.85l38.98-38.98,2.07-2.06c1.14-1.14,1.14-2.99,0-4.12h0s0-.02,0-.02Z"/>
    </g>
  </g>
</svg>