<?xml version="1.0" encoding="UTF-8"?>
<svg id="Layer_2" data-name="Layer 2" xmlns="http://www.w3.org/2000/svg" viewBox="0 0 163.02 165.88">
  <defs>
    <style>
      .cls-1 {
        fill: #fff;
        stroke-width: 0px;
      }
    </style>
  </defs>
  <g id="Layer_1-2" data-name="Layer 1">
    <g>
      <path class="cls-1" d="M83.41,58.18c-.82.13-1.67.2-2.52.2-1.11,0-2.19-.11-3.24-.32l-4.06,10.14h14.3l-4.49-10.02Z"/>
      <polygon class="cls-1" points="90.17 73.24 71.58 73.24 70.46 76.04 91.42 76.04 90.17 73.24"/>
      <path class="cls-1" d="M133.73,160.26H29.83c-2.19,2.4-5.05,4.18-8.29,5.04h124.32c-4.74,0-9.03-1.93-12.13-5.04Z"/>
      <polygon class="cls-1" points="34.3 81.08 54.98 81.08 57 76.04 34.3 76.04 34.3 81.08"/>
      <polygon class="cls-1" points="91.42 76.04 70.46 76.04 68.45 81.08 93.69 81.08 91.42 76.04"/>
      <polygon class="cls-1" points="107.39 81.08 128.72 81.08 128.72 76.04 105.13 76.04 107.39 81.08"/>
      <path class="cls-1" d="M29.83,160.26c2.77-3.05,4.47-7.1,4.47-11.53v-83.11c0-9.45-7.69-17.14-17.15-17.14S0,56.17,0,65.62v83.11c0,9.45,7.69,17.15,17.15,17.15,1.52,0,2.99-.2,4.39-.57,3.24-.86,6.1-2.64,8.29-5.04ZM17.15,165.72c-9.25,0-16.77-7.52-16.77-16.77,0-4.49,1.78-8.57,4.66-11.58v-71.75c0-6.67,5.43-12.1,12.11-12.1s12.1,5.43,12.1,12.1v71.75c2.89,3.01,4.67,7.09,4.67,11.58,0,9.24-7.52,16.77-16.77,16.77Z"/>
      <path class="cls-1" d="M33.92,148.96c0-4.49-1.78-8.57-4.67-11.58-3.05-3.19-7.35-5.19-12.1-5.19s-9.06,2-12.11,5.19c-2.88,3.01-4.66,7.09-4.66,11.58,0,9.24,7.52,16.77,16.77,16.77s16.77-7.52,16.77-16.77ZM17.15,160.68c-6.47,0-11.73-5.26-11.73-11.72s5.26-11.72,11.73-11.72,11.72,5.26,11.72,11.72-5.26,11.72-11.72,11.72Z"/>
      <path class="cls-1" d="M17.15,140.4c-5.09,0-9.22,4.14-9.22,9.21s4.14,9.22,9.22,9.22,9.22-4.14,9.22-9.22-4.14-9.21-9.22-9.21ZM17.15,153.79c-2.31,0-4.18-1.87-4.18-4.18s1.87-4.17,4.18-4.17,4.17,1.87,4.17,4.17-1.88,4.18-4.17,4.18Z"/>
      <path class="cls-1" d="M145.87,47.9c-9.46,0-17.15,7.7-17.15,17.16v83.1c0,4.71,1.92,9,5.01,12.11,3.11,3.11,7.4,5.04,12.13,5.04,9.46,0,17.15-7.7,17.15-17.15v-83.1c0-9.46-7.69-17.16-17.15-17.16ZM145.87,165.15c-9.24,0-16.77-7.52-16.77-16.77,0-4.49,1.78-8.57,4.66-11.58v-71.75c0-6.68,5.43-12.11,12.11-12.11s12.1,5.43,12.1,12.11v71.75c2.89,3.02,4.66,7.09,4.66,11.58,0,9.25-7.52,16.77-16.77,16.77Z"/>
      <path class="cls-1" d="M157.97,136.8c-3.05-3.19-7.35-5.18-12.1-5.18s-9.05,1.99-12.11,5.18c-2.88,3.02-4.66,7.09-4.66,11.58,0,9.25,7.52,16.77,16.77,16.77s16.77-7.52,16.77-16.77c0-4.49-1.78-8.57-4.66-11.58ZM145.87,160.11c-6.46,0-11.72-5.26-11.72-11.72s5.26-11.72,11.72-11.72,11.72,5.26,11.72,11.72-5.26,11.72-11.72,11.72Z"/>
      <path class="cls-1" d="M145.87,139.82c-5.08,0-9.22,4.13-9.22,9.22s4.14,9.21,9.22,9.21,9.22-4.13,9.22-9.21-4.14-9.22-9.22-9.22ZM145.87,153.22c-2.3,0-4.18-1.87-4.18-4.18s1.88-4.17,4.18-4.17,4.17,1.87,4.17,4.17-1.87,4.18-4.17,4.18Z"/>
      <polygon class="cls-1" points="87.9 68.2 73.6 68.2 71.58 73.24 90.17 73.24 87.9 68.2"/>
      <path class="cls-1" d="M80.4,15.75V5.25c0-.12.1-.21.21-.21s.21.1.21.21v10.5h5.04V5.25c0-2.9-2.36-5.25-5.25-5.25s-5.25,2.36-5.25,5.25v10.5h5.04Z"/>
      <path class="cls-1" d="M77.03,26.5v-5.7h7.17v5.57c1.81.38,3.51,1.06,5.05,1.99v-10.08c0-1.39-1.13-2.52-2.52-2.52h-12.21c-1.39,0-2.52,1.13-2.52,2.52v10.44c1.52-1.01,3.22-1.77,5.04-2.21Z"/>
      <path class="cls-1" d="M54.98,81.08l-7.56,18.92c-.51,1.28.1,2.73,1.37,3.26l.88.37.04-.61c.08-1.44,1.32-2.54,2.76-2.46,1.44.09,2.54,1.32,2.46,2.76-.03.47-.19.92-.43,1.29l-.54.81,1.71.72c.31.13.64.2.97.2s.66-.07.97-.2c.62-.26,1.12-.76,1.37-1.39l9.47-23.68,2.01-5.05,1.12-2.8,2.02-5.04,4.06-10.14c-1.69-.35-3.27-.96-4.72-1.78l-17.68,44.23-2.23-.93,17.86-44.68c-1.48-1.18-2.76-2.59-3.75-4.2l-10.13,25.34-2.02,5.05Z"/>
      <path class="cls-1" d="M90.31,55.34l19.83,44.19-2.21.98-19.7-43.9c-1.49.76-3.11,1.3-4.82,1.57l4.49,10.02,2.27,5.04,1.25,2.8,2.27,5.05,10.67,23.77c.42.94,1.34,1.49,2.3,1.49.34,0,.69-.07,1.02-.22l1.12-.49-.67-1.02c-.8-1.2-.46-2.82.74-3.62,1.2-.79,2.82-.47,3.62.74.26.4.4.85.43,1.29l.05.76,1.54-.68c.61-.27,1.09-.78,1.33-1.4.24-.63.22-1.33-.05-1.94l-8.39-18.69-2.26-5.05-11.01-24.55c-1.05,1.49-2.33,2.79-3.81,3.85Z"/>
      <path class="cls-1" d="M70.88,54.9c.64.51,1.33.97,2.05,1.38,1.45.83,3.04,1.43,4.72,1.78,1.04.21,2.13.32,3.24.32.85,0,1.7-.07,2.52-.2,1.71-.27,3.33-.81,4.82-1.57.73-.37,1.42-.8,2.08-1.27,1.47-1.06,2.76-2.36,3.81-3.85,1.85-2.62,2.94-5.83,2.94-9.29,0-5.86-3.13-11-7.81-13.84-1.54-.92-3.24-1.61-5.05-1.99-1.07-.22-2.18-.34-3.31-.34-1.33,0-2.62.17-3.86.47-1.82.44-3.52,1.2-5.04,2.21-4.38,2.89-7.27,7.86-7.27,13.49,0,3.12.88,6.02,2.42,8.49,1,1.61,2.27,3.03,3.75,4.2ZM80.89,31.07c6.13,0,11.12,4.99,11.12,11.13s-4.99,11.13-11.12,11.13-11.13-4.99-11.13-11.13,4.99-11.13,11.13-11.13Z"/>
      <path class="cls-1" d="M53.95,105.44l.54-.81c.24-.37.4-.81.43-1.29.08-1.44-1.02-2.67-2.46-2.76-1.44-.08-2.68,1.01-2.76,2.46l-.04.61-.53,9.08,4.82-7.28Z"/>
      <path class="cls-1" d="M111.98,108.66c.45.25.88.5,1.3.75l-.33-5.62-.05-.76c-.03-.44-.17-.89-.43-1.29-.8-1.21-2.42-1.53-3.62-.74-1.2.8-1.54,2.42-.74,3.62l.67,1.02,1.81,2.73c.46-.04.94.05,1.38.29Z"/>
      <path class="cls-1" d="M111.98,108.66c-.44-.24-.92-.32-1.38-.29-.83.06-1.61.53-2.04,1.31-.02.03-.03.07-.04.1-.59,1.21-.14,2.67,1.06,3.32,2.27,1.23,4,2.6,5,3.97.49.68,1.26,1.04,2.04,1.04.4,0,.8-.1,1.16-.29.11-.06.22-.12.32-.2,1.12-.82,1.37-2.4.55-3.53-1.24-1.7-3.05-3.27-5.37-4.69-.42-.26-.85-.51-1.3-.75Z"/>
      <path class="cls-1" d="M75.58,132c-2.49-.17-4.94-.44-7.28-.82-1.37-.22-2.64.7-2.88,2.05,0,.01,0,.03-.01.04-.22,1.38.72,2.67,2.09,2.89,2.5.4,5.1.7,7.75.87.06,0,.11,0,.17,0,1.32,0,2.43-1.02,2.51-2.36,0-.01,0-.03,0-.04.07-1.37-.97-2.55-2.35-2.64Z"/>
      <path class="cls-1" d="M48.99,123.5c-1.2-1.25-1.81-2.49-1.81-3.69,0-.34-.07-.65-.19-.95-.38-.92-1.28-1.57-2.33-1.57-1.39,0-2.52,1.12-2.52,2.52,0,2.55,1.09,4.97,3.23,7.19.5.51,1.15.77,1.81.77s1.26-.24,1.75-.71c.05-.05.09-.11.13-.16.86-.98.84-2.45-.08-3.4Z"/>
      <path class="cls-1" d="M81.39,107.44c2.47,0,4.95.1,7.34.31.07,0,.14,0,.22,0,1.28,0,2.37-.97,2.5-2.27,0-.01,0-.03,0-.03.12-1.4-.91-2.62-2.3-2.74-2.54-.21-5.16-.33-7.77-.33-1.39,0-2.52,1.13-2.52,2.53,0,.33.07.65.19.95.38.92,1.28,1.57,2.34,1.57Z"/>
      <path class="cls-1" d="M95.99,108.7c2.51.46,4.88,1.04,7.05,1.71.25.08.5.12.75.12,1.05,0,2.03-.67,2.38-1.71,0-.02.02-.04.02-.06.42-1.33-.32-2.74-1.66-3.16-2.37-.74-4.94-1.37-7.65-1.86-1.37-.26-2.68.66-2.93,2.02,0,.02,0,.04,0,.05-.22,1.36.68,2.64,2.03,2.89Z"/>
      <path class="cls-1" d="M90.27,131.74c-2.39.24-4.85.4-7.34.43-1.38.03-2.47,1.16-2.47,2.53v.04c.02,1.38,1.14,2.48,2.51,2.48h.04c2.62-.05,5.24-.2,7.77-.47,1.38-.14,2.39-1.38,2.25-2.77,0-.02,0-.03,0-.05-.17-1.36-1.39-2.34-2.76-2.2Z"/>
      <path class="cls-1" d="M104.47,128.74c-2.12.74-4.47,1.38-6.98,1.89-1.35.28-2.21,1.58-1.96,2.93,0,.01,0,.03,0,.05.24,1.19,1.29,2.01,2.46,2.01.17,0,.34-.02.51-.05,2.72-.56,5.29-1.26,7.62-2.07,1.31-.46,2.01-1.9,1.55-3.21,0-.02-.02-.04-.03-.07-.49-1.27-1.89-1.93-3.18-1.48Z"/>
      <path class="cls-1" d="M115.17,121.59c-.69,1.42-2.19,2.88-4.34,4.21-1.15.71-1.52,2.19-.87,3.37.02.03.03.07.05.11.47.77,1.3,1.19,2.14,1.19.45,0,.91-.12,1.33-.38,3.01-1.87,5.1-3.99,6.22-6.31.61-1.25.08-2.76-1.18-3.37-.14-.07-.29-.12-.44-.16-1.15-.31-2.39.23-2.93,1.34Z"/>
      <path class="cls-1" d="M61.19,129.64c-2.49-.7-4.74-1.52-6.69-2.46-1.23-.58-2.68-.08-3.31,1.11-.02.03-.04.05-.06.09-.6,1.26-.06,2.77,1.19,3.37,2.21,1.05,4.73,1.97,7.5,2.75.23.06.46.1.68.1,1.1,0,2.11-.73,2.43-1.84,0-.02,0-.04,0-.06.34-1.32-.43-2.68-1.75-3.05Z"/>
    </g>
  </g>
</svg>