<?xml version="1.0" encoding="UTF-8"?>
<svg id="Layer_2" data-name="Layer 2" xmlns="http://www.w3.org/2000/svg" viewBox="0 0 165.87 165.8">
  <defs>
    <style>
      .cls-1 {
        fill: #fff;
        stroke-width: 0px;
      }
    </style>
  </defs>
  <g id="Layer_1-2" data-name="Layer 1">
    <g>
      <path class="cls-1" d="M163.35,39.44H46.9v5.04h113.93v115.46H38.93c-2.65,2.34-5.83,4.09-9.34,5.04h133.76c1.39,0,2.52-1.13,2.52-2.52V41.96c0-1.4-1.13-2.52-2.52-2.52Z"/>
      <path class="cls-1" d="M38.93,159.93c4.88-4.3,7.97-10.59,7.97-17.59V23.45C46.9,10.51,36.38,0,23.45,0S0,10.51,0,23.45v118.9c0,12.93,10.52,23.45,23.45,23.45,2.12,0,4.18-.29,6.14-.82,3.51-.95,6.69-2.71,9.34-5.04ZM23.45,165.58c-12.63,0-22.9-10.28-22.9-22.91,0-5.09,1.67-9.8,4.49-13.61V23.45C5.04,13.3,13.3,5.04,23.45,5.04s18.41,8.26,18.41,18.4v105.62c2.82,3.81,4.49,8.52,4.49,13.61,0,12.63-10.27,22.91-22.9,22.91Z"/>
      <path class="cls-1" d="M46.35,142.67c0-5.09-1.67-9.8-4.49-13.61-4.18-5.63-10.88-9.29-18.41-9.29s-14.23,3.66-18.41,9.29c-2.82,3.81-4.49,8.52-4.49,13.61,0,12.63,10.27,22.91,22.9,22.91s22.9-10.28,22.9-22.91ZM23.45,160.54c-9.85,0-17.87-8.02-17.87-17.87s8.02-17.86,17.87-17.86,17.86,8.02,17.86,17.86-8.01,17.87-17.86,17.87Z"/>
      <path class="cls-1" d="M23.45,131.52c-6.68,0-12.11,5.43-12.11,12.1s5.43,12.11,12.11,12.11,12.11-5.43,12.11-12.11-5.43-12.1-12.11-12.1ZM23.45,150.69c-3.89,0-7.06-3.17-7.06-7.07s3.17-7.06,7.06-7.06,7.06,3.17,7.06,7.06-3.17,7.07-7.06,7.07Z"/>
      <path class="cls-1" d="M145.7,84.03v2.67c0,1.4,1.13,2.52,2.52,2.52s2.53-1.13,2.53-2.52v-31.8c0-1.39-1.13-2.52-2.53-2.52h-29.96c-1.4,0-2.52,1.13-2.52,2.52s1.13,2.52,2.52,2.52h27.43v26.62Z"/>
      <path class="cls-1" d="M120.93,146.36h-2.66c-1.4,0-2.52,1.13-2.52,2.53s1.13,2.52,2.52,2.52h29.96c1.4,0,2.53-1.13,2.53-2.52v-28.37c0-1.39-1.13-2.52-2.53-2.52s-2.52,1.13-2.52,2.52v25.85h-24.77Z"/>
      <path class="cls-1" d="M101.38,136.17v-2.48c-1.21.19-2.13,1.22-2.13,2.48,0,1.39,1.13,2.53,2.53,2.53h2.13c-1.39,0-2.52-1.13-2.52-2.53Z"/>
      <path class="cls-1" d="M81,133.65h-6.92c-1.39,0-2.53,1.13-2.53,2.52s1.13,2.53,2.53,2.53h6.92c1.39,0,2.52-1.13,2.52-2.53s-1.13-2.52-2.52-2.52Z"/>
      <path class="cls-1" d="M94.84,133.65h-6.92c-1.39,0-2.52,1.13-2.52,2.52s1.14,2.53,2.52,2.53h6.92c1.39,0,2.52-1.13,2.52-2.53s-1.13-2.52-2.52-2.52Z"/>
      <path class="cls-1" d="M63.37,138.69h3.78c1.4,0,2.52-1.13,2.52-2.53s-1.13-2.52-2.52-2.52h-1.26v-1.26c0-1.39-1.13-2.52-2.52-2.52s-2.52,1.13-2.52,2.52v3.78c0,1.39,1.13,2.53,2.52,2.53Z"/>
      <path class="cls-1" d="M65.89,98.85v-6.71c0-1.39-1.13-2.52-2.52-2.52s-2.52,1.13-2.52,2.52v6.71c0,1.39,1.13,2.52,2.52,2.52s2.52-1.13,2.52-2.52Z"/>
      <path class="cls-1" d="M65.89,85.44v-6.71c0-1.39-1.13-2.52-2.52-2.52s-2.52,1.13-2.52,2.52v6.71c0,1.39,1.13,2.52,2.52,2.52s2.52-1.13,2.52-2.52Z"/>
      <path class="cls-1" d="M65.89,112.26v-6.71c0-1.39-1.13-2.52-2.52-2.52s-2.52,1.13-2.52,2.52v6.71c0,1.4,1.13,2.52,2.52,2.52s2.52-1.13,2.52-2.52Z"/>
      <path class="cls-1" d="M65.89,125.68v-6.71c0-1.39-1.13-2.53-2.52-2.53s-2.52,1.13-2.52,2.53v6.71c0,1.39,1.13,2.52,2.52,2.52s2.52-1.13,2.52-2.52Z"/>
      <path class="cls-1" d="M65.89,72.03v-1.26h1.26c1.4,0,2.52-1.13,2.52-2.52s-1.13-2.52-2.52-2.52h-3.78c-1.39,0-2.52,1.12-2.52,2.52v3.78c0,1.4,1.13,2.52,2.52,2.52s2.52-1.12,2.52-2.52Z"/>
      <path class="cls-1" d="M101.78,70.76h6.91c1.4,0,2.52-1.13,2.52-2.52s-1.13-2.52-2.52-2.52h-6.91c-1.4,0-2.53,1.12-2.53,2.52s1.13,2.52,2.53,2.52Z"/>
      <path class="cls-1" d="M87.92,70.76h6.92c1.39,0,2.52-1.13,2.52-2.52s-1.13-2.52-2.52-2.52h-6.92c-1.39,0-2.52,1.12-2.52,2.52s1.13,2.52,2.52,2.52Z"/>
      <path class="cls-1" d="M74.08,70.76h6.92c1.39,0,2.52-1.13,2.52-2.52s-1.13-2.52-2.52-2.52h-6.92c-1.39,0-2.53,1.12-2.53,2.52s1.13,2.52,2.53,2.52Z"/>
      <path class="cls-1" d="M115.61,70.76h6.93c1.39,0,2.52-1.13,2.52-2.52s-1.13-2.52-2.52-2.52h-6.93c-1.39,0-2.52,1.12-2.52,2.52s1.14,2.52,2.52,2.52Z"/>
      <path class="cls-1" d="M129.46,70.76h1.26v1.26c0,1.4,1.13,2.52,2.52,2.52.98,0,1.82-.56,2.23-1.38.18-.34.29-.73.29-1.14v-3.78c0-1.4-1.13-2.52-2.53-2.52h-3.78c-.3,0-.59.06-.85.15-.98.35-1.68,1.27-1.68,2.37,0,1.39,1.14,2.52,2.53,2.52Z"/>
      <path class="cls-1" d="M130.72,78.73v6.71c0,1.39,1.13,2.52,2.52,2.52s2.53-1.13,2.53-2.52v-6.71c0-1.39-1.13-2.52-2.53-2.52s-2.52,1.13-2.52,2.52Z"/>
      <path class="cls-1" d="M130.72,92.15v6.71c0,1.39,1.13,2.52,2.52,2.52s2.53-1.13,2.53-2.52v-6.71c0-1.39-1.13-2.52-2.53-2.52s-2.52,1.13-2.52,2.52Z"/>
      <path class="cls-1" d="M130.72,105.56v.34h2.52c1.39,0,2.53,1.13,2.53,2.52v-2.86c0-1.39-1.13-2.52-2.53-2.52s-2.52,1.13-2.52,2.52Z"/>
      <path class="cls-1" d="M133.25,105.9h-29.34c-1.39,0-2.52,1.13-2.52,2.52v27.75c0,1.39,1.13,2.53,2.52,2.53h29.34c1.39,0,2.53-1.13,2.53-2.53v-27.75c0-1.39-1.13-2.52-2.53-2.52ZM122.54,133.65h-16.11v-22.7h24.29v22.7h-8.18Z"/>
    </g>
  </g>
</svg>