<?xml version="1.0" encoding="UTF-8"?>
<svg id="Layer_2" data-name="Layer 2" xmlns="http://www.w3.org/2000/svg" viewBox="0 0 153.52 165.87">
  <defs>
    <style>
      .cls-1 {
        fill: #fff;
        stroke-width: 0px;
      }
    </style>
  </defs>
  <g id="Layer_1-2" data-name="Layer 1">
    <g>
      <path class="cls-1" d="M2.52,107.02h2.52v-62.59c0-5.14,4.19-9.33,9.33-9.33h22.33c1.39,0,2.52-1.12,2.52-2.52s-1.13-2.52-2.52-2.52H14.37c-7.93,0-14.37,6.45-14.37,14.37v65.11c0-1.39,1.13-2.52,2.52-2.52Z"/>
      <path class="cls-1" d="M55.76,126c.17-.03.34-.04.51-.04H14.37c-5.14,0-9.33-4.19-9.33-9.33v-4.57h-2.52c-1.39,0-2.52-1.13-2.52-2.52v7.09c0,7.93,6.45,14.37,14.37,14.37h39.66c-.12-1.25-.26-2.01-.27-2.04-.27-1.37.63-2.7,2-2.96Z"/>
      <path class="cls-1" d="M150.99,112.06h-2.52v4.57c0,5.14-4.19,9.33-9.33,9.33H56.27c1.17.01,2.21.85,2.44,2.04.03.16.24,1.27.39,3h29.27c.05-.35.1-.58.11-.65.26-1.37,1.59-2.25,2.95-1.99,1.26.25,2.11,1.39,2.03,2.64h45.68c7.92,0,14.38-6.45,14.38-14.37v-7.08c0,1.38-1.14,2.51-2.53,2.51Z"/>
      <path class="cls-1" d="M115.88,35.09h23.26c5.14,0,9.33,4.19,9.33,9.33v62.59h2.52c1.39,0,2.52,1.12,2.53,2.51V44.43c0-7.93-6.45-14.37-14.38-14.37h-23.26c-1.4,0-2.52,1.13-2.52,2.52s1.13,2.52,2.52,2.52Z"/>
      <path class="cls-1" d="M153.52,109.52c0-1.38-1.14-2.51-2.53-2.51H2.52c-1.39,0-2.52,1.13-2.52,2.52s1.13,2.52,2.52,2.52h148.47c1.39,0,2.52-1.12,2.53-2.51h0v-.03Z"/>
      <path class="cls-1" d="M58.72,128c-.23-1.19-1.27-2.03-2.44-2.04-.17,0-.34.01-.51.04-1.37.26-2.26,1.59-2,2.96,0,.03.15.79.27,2.04.39,4.11.57,13.54-4.95,20.14-4.16,4.98-10.88,7.46-19.97,7.33-1.4,0-2.53,1.1-2.55,2.49-.01,1.39,1.1,2.54,2.49,2.56h.67c10.34,0,18.16-3.07,23.23-9.15,6.51-7.78,6.58-18.28,6.15-23.37-.15-1.72-.35-2.83-.39-3Z"/>
      <path class="cls-1" d="M91.43,128.36c-1.37-.26-2.69.63-2.95,1.99-.01.07-.05.3-.11.65-.47,3.09-1.96,16.36,5.87,25.73,5.08,6.07,12.89,9.14,23.23,9.14.22,0,.45,0,.67,0,1.39-.02,2.51-1.16,2.49-2.55-.01-1.38-1.14-2.49-2.52-2.49h-.03c-9.07.12-15.79-2.35-19.95-7.31-7.17-8.56-4.74-22.02-4.7-22.2.02-.11.02-.21.03-.31.09-1.25-.76-2.39-2.03-2.64Z"/>
      <path class="cls-1" d="M139.54,52.5c1.39,0,2.52-1.13,2.52-2.52v-3.79c0-1.39-1.13-2.52-2.52-2.52s-2.52,1.13-2.52,2.52v3.79c0,1.39,1.13,2.52,2.52,2.52Z"/>
      <path class="cls-1" d="M137.02,70.22v5.87h2.52c1.11,0,2.03.71,2.38,1.7.09-.26.15-.53.15-.83v-6.74c0-1.39-1.13-2.52-2.52-2.52s-2.52,1.13-2.52,2.52Z"/>
      <path class="cls-1" d="M137.02,56.72v6.75c0,1.39,1.13,2.52,2.52,2.52s2.52-1.12,2.52-2.52v-6.75c0-1.39-1.13-2.52-2.52-2.52s-2.52,1.13-2.52,2.52Z"/>
      <path class="cls-1" d="M113.36,100.99v-2.52h-5.48c-1.39,0-2.52,1.13-2.52,2.52s1.13,2.52,2.52,2.52h6.97c.18,0,.35-.02.51-.05-1.15-.25-2-1.26-2-2.47Z"/>
      <path class="cls-1" d="M100.91,98.46h-6.98c-1.39,0-2.52,1.13-2.52,2.52s1.13,2.52,2.52,2.52h6.98c1.39,0,2.52-1.13,2.52-2.52s-1.13-2.52-2.52-2.52Z"/>
      <path class="cls-1" d="M83.18,103.51h3.78c1.39,0,2.52-1.13,2.52-2.52s-1.13-2.52-2.52-2.52h-3.78c-1.39,0-2.52,1.13-2.52,2.52s1.13,2.52,2.52,2.52Z"/>
      <path class="cls-1" d="M139.54,76.08h-23.66c-1.4,0-2.52,1.13-2.52,2.52v22.38c0,1.21.86,2.22,2,2.47.17.03.34.05.52.05h23.66c1.39,0,2.52-1.13,2.52-2.52v-22.38c0-.29-.06-.56-.15-.82-.34-.99-1.27-1.7-2.38-1.7ZM128.79,98.46h-10.39v-17.34h18.62v17.34h-8.23Z"/>
      <path class="cls-1" d="M74.21,122.37c1.59,0,2.87-1.28,2.87-2.86s-1.28-2.87-2.87-2.87-2.86,1.29-2.86,2.87,1.29,2.86,2.86,2.86Z"/>
      <path class="cls-1" d="M80.99,92.49c-.88,1.56-2.55,2.61-4.46,2.61s-3.58-1.05-4.46-2.61h-5.39c1.13,4.39,5.11,7.65,9.84,7.65s8.72-3.26,9.84-7.65h-5.38Z"/>
      <path class="cls-1" d="M62.54,65.12v2.55h5.04v-4.21c0-1.03-.63-1.96-1.59-2.34-11.12-4.44-18.31-15.04-18.31-27.01,0-16.03,13.04-29.07,29.08-29.07s29.07,13.04,29.07,29.07c0,11.96-7.19,22.57-18.31,27.01-.96.38-1.58,1.31-1.58,2.34v4.21h5.04v-2.55c12.14-5.55,19.9-17.54,19.9-31.01,0-.52-.02-1.03-.04-1.54C110.03,14.47,95.05,0,76.76,0s-33.27,14.47-34.08,32.58c-.02.51-.04,1.02-.04,1.54,0,13.46,7.75,25.46,19.9,31.01Z"/>
      <path class="cls-1" d="M85.94,67.67h-23.66c-1.39,0-2.52,1.13-2.52,2.53v11.56c0,1.39,1.13,2.53,2.52,2.53h.81v-2.53c0-1.39,1.13-2.52,2.52-2.52h-.82v-6.51h23.92v6.51h-.81c1.39,0,2.52,1.13,2.52,2.52v2.53h.82c1.39,0,2.52-1.13,2.52-2.53v-11.56c0-1.39-1.13-2.53-2.52-2.53h-5.3Z"/>
      <path class="cls-1" d="M87.9,79.23h-22.29c-1.39,0-2.52,1.13-2.52,2.52v8.21c0,1.39,1.13,2.52,2.52,2.52h22.29c1.39,0,2.52-1.13,2.52-2.52v-8.21c0-1.39-1.13-2.52-2.52-2.52ZM85.38,87.45h-17.24v-3.16h17.24v3.16Z"/>
      <path class="cls-1" d="M88.21,56.6c.47.47,1.12.74,1.79.74s1.31-.27,1.78-.74l7.15-7.16c.99-.99.99-2.59,0-3.57l-4.41-4.41h6.01c1.4,0,2.53-1.12,2.53-2.52v-9.05c0-1.4-1.13-2.52-2.53-2.52h-5.04l3.92-3.92c.98-.98.98-2.58,0-3.57l-8.13-8.13c-.47-.47-1.11-.74-1.78-.74s-1.31.26-1.78.74l-2.94,2.94v-4.05c0-1.39-1.13-2.52-2.52-2.52h-11.01c-1.39,0-2.52,1.13-2.52,2.52v5.03l-3.43-3.43c-.47-.47-1.11-.73-1.78-.73s-1.31.27-1.79.73l-7.15,7.16c-.98.98-.98,2.59,0,3.56l4.41,4.41h-6.01c-1.39,0-2.52,1.13-2.52,2.52v9.05c0,1.4,1.13,2.52,2.52,2.52h5.04l-3.92,3.92c-.98.99-.98,2.58,0,3.57l8.13,8.13c.47.47,1.12.74,1.78.74s1.31-.27,1.79-.74l2.94-2.94v4.06c0,1.39,1.13,2.52,2.52,2.52h11.01c1.39,0,2.52-1.13,2.52-2.52v-5.03l3.42,3.43ZM79.74,47.08v8.6h-5.97v-7.62c0-1.03-.62-1.94-1.56-2.33-.95-.39-2.03-.18-2.75.54l-5.46,5.46-4.56-4.56,6.44-6.44c.72-.72.94-1.81.54-2.75-.39-.94-1.31-1.56-2.33-1.56h-8.6v-4.01h9.58c1.02,0,1.94-.62,2.33-1.56.39-.94.17-2.02-.55-2.75l-6.93-6.93,3.59-3.59,5.95,5.95c.72.72,1.8.94,2.75.54.94-.38,1.56-1.31,1.56-2.33v-8.59h5.97v7.62c0,1.02.62,1.94,1.56,2.33.94.4,2.03.18,2.75-.54l5.46-5.46,4.56,4.56-6.44,6.44c-.72.72-.94,1.81-.54,2.75.39.94,1.31,1.56,2.33,1.56h8.61v4.01h-9.58c-1.02,0-1.94.62-2.34,1.56-.39.94-.17,2.03.55,2.75l6.93,6.93-3.59,3.59-5.95-5.95c-.72-.72-1.81-.94-2.75-.55-.94.39-1.56,1.31-1.56,2.33Z"/>
      <path class="cls-1" d="M85.71,34.41c0-4.93-4.02-8.95-8.95-8.95s-8.95,4.02-8.95,8.95,4.01,8.95,8.95,8.95,8.95-4.02,8.95-8.95ZM80.66,34.41c0,2.16-1.75,3.91-3.9,3.91s-3.91-1.75-3.91-3.91,1.75-3.9,3.91-3.9,3.9,1.75,3.9,3.9Z"/>
    </g>
  </g>
</svg>